<svg width="48" height="48" viewBox="0 0 48 48" fill="none" xmlns="http://www.w3.org/2000/svg">
<circle cx="24" cy="24" r="24" fill="#22C55E"/>
<path d="M32.21 20.82L26 14.78C25.474 14.2799 24.7759 14.001 24.05 14.001C23.3241 14.001 22.626 14.2799 22.1 14.78L15.89 20.78C15.6141 21.0209 15.3922 21.3173 15.2388 21.6499C15.0854 21.9825 15.004 22.3438 15 22.71V31.29C15.0105 32.0176 15.309 32.7114 15.8301 33.2194C16.3512 33.7273 17.0524 34.008 17.78 34H30.22C30.9476 34.008 31.6488 33.7273 32.1699 33.2194C32.691 32.7114 32.9895 32.0176 33 31.29V22.71C32.9992 22.3585 32.929 22.0106 32.7935 21.6862C32.6579 21.3619 32.4596 21.0675 32.21 20.82ZM23.44 16.22C23.593 16.0802 23.7927 16.0026 24 16.0026C24.2073 16.0026 24.407 16.0802 24.56 16.22L30 21.5L24.53 26.78C24.377 26.9199 24.1773 26.9974 23.97 26.9974C23.7627 26.9974 23.563 26.9199 23.41 26.78L18 21.5L23.44 16.22ZM31 31.29C30.9871 31.4863 30.8987 31.67 30.7532 31.8024C30.6078 31.9348 30.4166 32.0056 30.22 32H17.78C17.5834 32.0056 17.3922 31.9348 17.2468 31.8024C17.1013 31.67 17.0129 31.4863 17 31.29V23.35L21.05 27.25L19.39 28.85C19.2037 29.0374 19.0992 29.2908 19.0992 29.555C19.0992 29.8192 19.2037 30.0727 19.39 30.26C19.4829 30.3575 19.5946 30.4352 19.7184 30.4885C19.8421 30.5418 19.9753 30.5695 20.11 30.57C20.3675 30.569 20.6146 30.4687 20.8 30.29L22.57 28.59C23.0096 28.8587 23.5148 29.0008 24.03 29.0008C24.5452 29.0008 25.0504 28.8587 25.49 28.59L27.26 30.29C27.4454 30.4687 27.6925 30.569 27.95 30.57C28.0847 30.5695 28.2179 30.5418 28.3416 30.4885C28.4654 30.4352 28.5771 30.3575 28.67 30.26C28.8563 30.0727 28.9608 29.8192 28.9608 29.555C28.9608 29.2908 28.8563 29.0374 28.67 28.85L27 27.25L31 23.35V31.29Z" fill="#F0FDF4"/>
</svg>
