<svg width="48" height="48" viewBox="0 0 48 48" fill="none" xmlns="http://www.w3.org/2000/svg">
<circle cx="24" cy="24" r="24" fill="#22C55E"/>
<path d="M33 14H15C14.7348 14 14.4804 14.1054 14.2929 14.2929C14.1054 14.4804 14 14.7348 14 15V33C14 33.2652 14.1054 33.5196 14.2929 33.7071C14.4804 33.8946 14.7348 34 15 34H33C33.2652 34 33.5196 33.8946 33.7071 33.7071C33.8946 33.5196 34 33.2652 34 33V15C34 14.7348 33.8946 14.4804 33.7071 14.2929C33.5196 14.1054 33.2652 14 33 14ZM20 32H16V28H20V32ZM20 26H16V22H20V26ZM20 20H16V16H20V20ZM26 32H22V28H26V32ZM26 26H22V22H26V26ZM26 20H22V16H26V20ZM32 32H28V28H32V32ZM32 26H28V22H32V26ZM32 20H28V16H32V20Z" fill="#F0FDF4"/>
</svg>
