<svg width="24" height="24" viewBox="0 0 24 24" fill="none" xmlns="http://www.w3.org/2000/svg">
<path fill-rule="evenodd" clip-rule="evenodd" d="M13.6348 20.7275V12.7662H16.3582L16.7668 9.66268H13.6348V7.6815C13.6348 6.78323 13.8881 6.17107 15.2029 6.17107L16.877 6.1704V3.39446C16.5875 3.35756 15.5937 3.27295 14.437 3.27295C12.0216 3.27295 10.368 4.71903 10.368 7.37413V9.66268H7.63635V12.7662H10.368V20.7275H13.6348Z" fill="#22C55E"/>
<mask id="mask0_2454_16692" style="mask-type:luminance" maskUnits="userSpaceOnUse" x="7" y="3" width="10" height="18">
<path fill-rule="evenodd" clip-rule="evenodd" d="M13.6348 20.7275V12.7662H16.3582L16.7668 9.66268H13.6348V7.6815C13.6348 6.78323 13.8881 6.17107 15.2029 6.17107L16.877 6.1704V3.39446C16.5875 3.35756 15.5937 3.27295 14.437 3.27295C12.0216 3.27295 10.368 4.71903 10.368 7.37413V9.66268H7.63635V12.7662H10.368V20.7275H13.6348Z" fill="white"/>
</mask>
<g mask="url(#mask0_2454_16692)">
</g>
</svg>
