<svg width="56" height="56" viewBox="0 0 56 56" fill="none" xmlns="http://www.w3.org/2000/svg">
<rect width="56" height="56" rx="5.25" fill="#22C55E"/>
<path d="M21.875 33.2499H25.585C25.7002 33.2506 25.8143 33.2285 25.9209 33.185C26.0275 33.1415 26.1245 33.0773 26.2062 32.9962L32.2613 26.9324L34.7462 24.4999C34.8283 24.4186 34.8934 24.3218 34.9378 24.2152C34.9822 24.1086 35.0051 23.9942 35.0051 23.8787C35.0051 23.7632 34.9822 23.6488 34.9378 23.5422C34.8934 23.4356 34.8283 23.3388 34.7462 23.2574L31.0363 19.5037C30.9549 19.4217 30.8581 19.3566 30.7515 19.3122C30.6449 19.2677 30.5305 19.2449 30.415 19.2449C30.2995 19.2449 30.1851 19.2677 30.0785 19.3122C29.9719 19.3566 29.8751 19.4217 29.7937 19.5037L27.3263 21.9799L21.2537 28.0437C21.1727 28.1255 21.1085 28.2224 21.065 28.329C21.0214 28.4356 20.9993 28.5498 21 28.6649V32.3749C21 32.607 21.0922 32.8296 21.2563 32.9937C21.4204 33.1578 21.6429 33.2499 21.875 33.2499ZM30.415 21.3587L32.8913 23.8349L31.6488 25.0774L29.1725 22.6012L30.415 21.3587ZM22.75 29.0237L27.9388 23.8349L30.415 26.3112L25.2262 31.4999H22.75V29.0237ZM35.875 34.9999H20.125C19.8929 34.9999 19.6704 35.0921 19.5063 35.2562C19.3422 35.4203 19.25 35.6429 19.25 35.8749C19.25 36.107 19.3422 36.3296 19.5063 36.4937C19.6704 36.6578 19.8929 36.7499 20.125 36.7499H35.875C36.1071 36.7499 36.3296 36.6578 36.4937 36.4937C36.6578 36.3296 36.75 36.107 36.75 35.8749C36.75 35.6429 36.6578 35.4203 36.4937 35.2562C36.3296 35.0921 36.1071 34.9999 35.875 34.9999Z" fill="white"/>
</svg>
