<svg width="56" height="56" viewBox="0 0 56 56" fill="none" xmlns="http://www.w3.org/2000/svg">
<rect width="56" height="56" rx="5.25" fill="#22C55E"/>
<g clip-path="url(#clip0_2454_15267)">
<path d="M32.375 36.4263H21.875C21.1788 36.4263 20.5111 36.1497 20.0188 35.6574C19.5266 35.1651 19.25 34.4975 19.25 33.8013V26.8013C19.25 26.5692 19.1578 26.3466 18.9937 26.1826C18.8296 26.0185 18.6071 25.9263 18.375 25.9263C18.1429 25.9263 17.9204 26.0185 17.7563 26.1826C17.5922 26.3466 17.5 26.5692 17.5 26.8013V33.8013C17.5 34.9616 17.9609 36.0744 18.7814 36.8949C19.6019 37.7153 20.7147 38.1763 21.875 38.1763H32.375C32.6071 38.1763 32.8296 38.0841 32.9937 37.92C33.1578 37.7559 33.25 37.5333 33.25 37.3013C33.25 37.0692 33.1578 36.8466 32.9937 36.6826C32.8296 36.5185 32.6071 36.4263 32.375 36.4263ZM35.875 20.6763H23.625C22.9288 20.6763 22.2611 20.9528 21.7688 21.4451C21.2766 21.9374 21 22.6051 21 23.3013V32.0513C21 32.7475 21.2766 33.4151 21.7688 33.9074C22.2611 34.3997 22.9288 34.6763 23.625 34.6763H35.875C36.5712 34.6763 37.2389 34.3997 37.7312 33.9074C38.2234 33.4151 38.5 32.7475 38.5 32.0513V23.3013C38.5 22.6051 38.2234 21.9374 37.7312 21.4451C37.2389 20.9528 36.5712 20.6763 35.875 20.6763ZM35.5163 22.4263L30.3713 27.5713C30.2899 27.6533 30.1931 27.7184 30.0865 27.7628C29.9799 27.8072 29.8655 27.8301 29.75 27.8301C29.6345 27.8301 29.5201 27.8072 29.4135 27.7628C29.3069 27.7184 29.2101 27.6533 29.1287 27.5713L23.9837 22.4263H35.5163ZM36.75 32.0513C36.75 32.2833 36.6578 32.5059 36.4937 32.67C36.3296 32.8341 36.1071 32.9263 35.875 32.9263H23.625C23.3929 32.9263 23.1704 32.8341 23.0063 32.67C22.8422 32.5059 22.75 32.2833 22.75 32.0513V23.625L27.895 28.77C28.3872 29.2616 29.0544 29.5377 29.75 29.5377C30.4456 29.5377 31.1128 29.2616 31.605 28.77L36.75 23.625V32.0513Z" fill="white"/>
</g>
<defs>
<clipPath id="clip0_2454_15267">
<rect width="21" height="21" fill="white" transform="translate(17.5 17.5)"/>
</clipPath>
</defs>
</svg>
