<svg width="56" height="56" viewBox="0 0 56 56" fill="none" xmlns="http://www.w3.org/2000/svg">
<rect width="56" height="56" rx="5.25" fill="#22C55E"/>
<path d="M26.25 28.875H20.125C19.8929 28.875 19.6704 28.9672 19.5063 29.1313C19.3422 29.2954 19.25 29.5179 19.25 29.75V35.875C19.25 36.1071 19.3422 36.3296 19.5063 36.4937C19.6704 36.6578 19.8929 36.75 20.125 36.75H26.25C26.4821 36.75 26.7046 36.6578 26.8687 36.4937C27.0328 36.3296 27.125 36.1071 27.125 35.875V29.75C27.125 29.5179 27.0328 29.2954 26.8687 29.1313C26.7046 28.9672 26.4821 28.875 26.25 28.875ZM25.375 35H21V30.625H25.375V35ZM35.875 19.25H29.75C29.5179 19.25 29.2954 19.3422 29.1313 19.5063C28.9672 19.6704 28.875 19.8929 28.875 20.125V26.25C28.875 26.4821 28.9672 26.7046 29.1313 26.8687C29.2954 27.0328 29.5179 27.125 29.75 27.125H35.875C36.1071 27.125 36.3296 27.0328 36.4937 26.8687C36.6578 26.7046 36.75 26.4821 36.75 26.25V20.125C36.75 19.8929 36.6578 19.6704 36.4937 19.5063C36.3296 19.3422 36.1071 19.25 35.875 19.25ZM35 25.375H30.625V21H35V25.375ZM35.875 28.875H29.75C29.5179 28.875 29.2954 28.9672 29.1313 29.1313C28.9672 29.2954 28.875 29.5179 28.875 29.75V35.875C28.875 36.1071 28.9672 36.3296 29.1313 36.4937C29.2954 36.6578 29.5179 36.75 29.75 36.75H35.875C36.1071 36.75 36.3296 36.6578 36.4937 36.4937C36.6578 36.3296 36.75 36.1071 36.75 35.875V29.75C36.75 29.5179 36.6578 29.2954 36.4937 29.1313C36.3296 28.9672 36.1071 28.875 35.875 28.875ZM35 35H30.625V30.625H35V35ZM26.25 19.25H20.125C19.8929 19.25 19.6704 19.3422 19.5063 19.5063C19.3422 19.6704 19.25 19.8929 19.25 20.125V26.25C19.25 26.4821 19.3422 26.7046 19.5063 26.8687C19.6704 27.0328 19.8929 27.125 20.125 27.125H26.25C26.4821 27.125 26.7046 27.0328 26.8687 26.8687C27.0328 26.7046 27.125 26.4821 27.125 26.25V20.125C27.125 19.8929 27.0328 19.6704 26.8687 19.5063C26.7046 19.3422 26.4821 19.25 26.25 19.25ZM25.375 25.375H21V21H25.375V25.375Z" fill="white"/>
</svg>
