<svg width="95" height="32" viewBox="0 0 95 32" fill="none" xmlns="http://www.w3.org/2000/svg">
<g id="Logo">
<g id="Flex">
<path d="M54.3157 6.71171V10.2986H46.8277V14.1735H52.4306V17.6557H46.8277V25.0913H42.3506V6.71171H54.3157Z" fill="white"/>
<path d="M61.1459 5.7168V25.0913H56.6688V5.7168H61.1459Z" fill="white"/>
<path d="M78.162 17.551C78.162 17.9699 78.1358 18.4062 78.0835 18.8601H67.9511C68.0209 19.7677 68.3089 20.4659 68.8151 20.9546C69.3387 21.4259 69.9758 21.6615 70.7264 21.6615C71.8434 21.6615 72.6202 21.1902 73.0565 20.2477H77.8216C77.5773 21.2077 77.1322 22.0717 76.4864 22.8397C75.858 23.6077 75.0638 24.2099 74.1038 24.6462C73.1438 25.0826 72.0704 25.3008 70.8834 25.3008C69.4522 25.3008 68.178 24.9953 67.0609 24.3844C65.9438 23.7735 65.0711 22.9008 64.4427 21.7663C63.8144 20.6317 63.5002 19.3052 63.5002 17.7866C63.5002 16.2681 63.8056 14.9415 64.4165 13.807C65.0449 12.6724 65.9176 11.7997 67.0347 11.1888C68.1518 10.5779 69.4347 10.2724 70.8834 10.2724C72.2973 10.2724 73.554 10.5692 74.6536 11.1626C75.7533 11.7561 76.6085 12.6026 77.2195 13.7023C77.8478 14.8019 78.162 16.0848 78.162 17.551ZM73.5802 16.3728C73.5802 15.6048 73.3184 14.9939 72.7947 14.5401C72.2711 14.0862 71.6165 13.8593 70.8311 13.8593C70.0805 13.8593 69.4434 14.0775 68.9198 14.5139C68.4136 14.9502 68.0994 15.5699 67.9773 16.3728H73.5802Z" fill="white"/>
<path d="M89.1639 25.0913L86.3624 21.0332L84.0061 25.0913H79.1624L83.9799 17.6295L79.0315 10.4819H84.0584L86.8599 14.5139L89.2162 10.4819H94.0599L89.1639 17.839L94.1908 25.0913H89.1639Z" fill="white"/>
</g>
<g id="Group">
<path id="Vector" d="M14.626 9.94644C19.0055 11.4921 23.7285 11.4063 28.0651 9.73177C28.108 7.97138 27.6357 6.21099 26.8199 4.62235L26.3906 3.76362C26.2618 3.80656 26.09 3.89244 26.0041 3.97831C22.054 5.86751 17.5886 6.12512 13.4238 4.62235C10.5042 3.59188 7.32687 3.8495 4.57895 5.22346L3.72023 5.65282C3.76316 5.78163 3.84904 5.95337 3.93492 6.03924C4.45015 7.15559 4.87951 8.35781 5.18006 9.60296C8.1856 8.74423 11.5346 8.8301 14.626 9.94644Z" fill="#22C55E"/>
<path id="Vector_2" d="M3.93493 22.87L4.87952 22.3548C6.7935 21.3978 8.90498 20.9345 11 20.9956C12.2888 21.0332 13.5713 21.2692 14.7978 21.7107C15.1973 21.8525 15.5981 21.9827 16 22.1013V26.6779C14.3376 26.3689 12.6547 26.3247 11 26.5377C9.28349 26.7587 7.59733 27.2564 5.99586 28.0224C5.90999 28.1082 5.73824 28.1941 5.60943 28.237L5.18007 27.3783C4.45015 25.9614 4.0208 24.4157 3.93493 22.87Z" fill="#22C55E"/>
<path id="Vector_3" d="M4.45014 18.9201C8.09972 17.4174 12.1787 17.2885 15.9141 18.6196C19.349 19.8218 22.9986 20.0365 26.4335 19.2636C26.3906 17.3315 26.6482 15.4423 27.3352 13.5531C22.8269 14.8841 17.9751 14.7553 13.4668 13.1667C10.8906 12.2221 8.05679 12.2221 5.48061 13.0808C5.52355 14.927 5.18007 16.8162 4.53603 18.6625C4.53603 18.6625 4.49308 18.7913 4.45014 18.9201Z" fill="#22C55E"/>
</g>
</g>
</svg>
