<svg width="184" height="48" viewBox="0 0 184 48" fill="none" xmlns="http://www.w3.org/2000/svg">
<path d="M75.0546 29.171C75.0546 31.4517 74.5193 33.1274 73.4488 34.1979C72.3782 35.2685 70.7259 35.8037 68.4917 35.8037C66.2808 35.8037 63.9302 35.6874 61.4401 35.4546V30.7419C63.2553 30.8583 65.1172 30.9165 67.0255 30.9165C67.5608 30.9165 67.9797 30.7652 68.2822 30.4626C68.6081 30.1368 68.771 29.7063 68.771 29.171V15.9056H64.2328V11.0183H75.0546V29.171Z" fill="#8896AB"/>
<path d="M90.7623 35.4546H78.1951V30.5674H81.3369V15.9056H78.1951V11.0183H90.7623V15.9056H87.6205V30.5674H90.7623V35.4546Z" fill="#8896AB"/>
<path d="M114.847 34.931C109.401 35.5128 104.397 35.8037 99.836 35.8037C97.5552 35.8037 95.8796 35.2685 94.8091 34.1979C93.7385 33.1274 93.2032 31.4517 93.2032 29.171V18.0001C93.2032 15.5565 93.7502 13.7877 94.844 12.6939C95.9611 11.5768 97.7414 11.0183 100.185 11.0183H112.752V15.9056H101.581C100.185 15.9056 99.4869 16.6037 99.4869 18.0001V29.171C99.4869 29.7063 99.6382 30.1368 99.9407 30.4626C100.267 30.7652 100.697 30.9165 101.232 30.9165C103.909 30.9165 106.352 30.8583 108.563 30.7419V25.6801H104.025V21.491H114.847V34.931Z" fill="#8896AB"/>
<path d="M139.29 34.931C133.844 35.5128 128.841 35.8037 124.279 35.8037C121.998 35.8037 120.323 35.2685 119.252 34.1979C118.182 33.1274 117.646 31.4517 117.646 29.171V18.0001C117.646 15.5565 118.193 13.7877 119.287 12.6939C120.404 11.5768 122.185 11.0183 124.628 11.0183H137.196V15.9056H126.025C124.628 15.9056 123.93 16.6037 123.93 18.0001V29.171C123.93 29.7063 124.081 30.1368 124.384 30.4626C124.71 30.7652 125.14 30.9165 125.676 30.9165C128.352 30.9165 130.796 30.8583 133.006 30.7419V25.6801H128.468V21.491H139.29V34.931Z" fill="#8896AB"/>
<path d="M149.071 30.5674H161.813V35.4546H142.788V11.0183H149.071V30.5674Z" fill="#8896AB"/>
<path d="M183.64 35.4546H164.265V11.0183H183.64V15.9056H170.549V20.6183H180.847V25.5056H170.549V30.5674H183.64V35.4546Z" fill="#8896AB"/>
<g clip-path="url(#clip0_2451_14099)">
<path fill-rule="evenodd" clip-rule="evenodd" d="M2.65618 8.33016C3.36482 8.33323 4.04353 8.61612 4.54463 9.11722C5.04572 9.61831 5.32863 10.297 5.33171 11.0057C5.35048 11.7005 5.63972 12.3605 6.13779 12.8453C6.63586 13.3301 7.30344 13.6014 7.9985 13.6014C8.69355 13.6014 9.36114 13.3301 9.85921 12.8453C10.3573 12.3605 10.6465 11.7005 10.6653 11.0057V2.67556C10.6684 1.96691 10.9512 1.28816 11.4523 0.78706C11.9534 0.285965 12.6322 0.00310274 13.3408 3.05176e-05C14.0467 0.00668273 14.7216 0.291252 15.2191 0.792072C15.7166 1.29289 15.9968 1.96961 15.9988 2.67556V20.1648C15.9891 20.521 16.051 20.8756 16.1807 21.2076C16.3104 21.5395 16.5053 21.8422 16.7539 22.0976C17.0025 22.3529 17.2997 22.5559 17.628 22.6945C17.9564 22.8331 18.3092 22.9046 18.6656 22.9046C19.022 22.9046 19.3748 22.8331 19.7031 22.6945C20.0314 22.5559 20.3287 22.3529 20.5773 22.0976C20.8259 21.8422 21.0207 21.5395 21.1504 21.2076C21.2801 20.8756 21.342 20.521 21.3324 20.1648V11.0057C21.3354 10.297 21.6183 9.61831 22.1194 9.11722C22.6205 8.61612 23.2992 8.33323 24.0079 8.33016C24.7138 8.33681 25.3886 8.62141 25.8862 9.12223C26.3837 9.62305 26.6639 10.2997 26.6659 11.0057V20.1648C26.6659 20.8718 26.9468 21.5499 27.4467 22.0498C27.9467 22.5497 28.6247 22.8306 29.3317 22.8306C30.0387 22.8306 30.7168 22.5497 31.2167 22.0498C31.7166 21.5499 31.9975 20.8718 31.9975 20.1648V2.67556C32.0006 1.96658 32.2837 1.28752 32.7853 0.786372C33.2868 0.285221 33.966 0.00259079 34.6749 3.05176e-05C35.3816 0.00363445 36.0581 0.287282 36.556 0.788818C37.0539 1.29035 37.3327 1.96886 37.3311 2.67556V11.0057C37.3499 11.7005 37.639 12.3605 38.1371 12.8453C38.6352 13.3301 39.3027 13.6014 39.9978 13.6014C40.6928 13.6014 41.3605 13.3301 41.8586 12.8453C42.3567 12.3605 42.6458 11.7005 42.6646 11.0057C42.6677 10.2967 42.9508 9.61768 43.4523 9.11653C43.9538 8.61538 44.6331 8.33272 45.3421 8.33016C46.0488 8.33377 46.7253 8.61744 47.2232 9.11897C47.721 9.62051 47.9997 10.299 47.9982 11.0057V37.0138C47.9956 37.7175 47.7149 38.3915 47.2174 38.8891C46.7198 39.3867 46.0458 39.6673 45.3421 39.6699C44.6362 39.6684 43.9592 39.3888 43.458 38.8916C42.9568 38.3944 42.6717 37.7197 42.6646 37.0138C42.6742 36.6575 42.6124 36.303 42.4827 35.971C42.353 35.639 42.1581 35.3364 41.9095 35.081C41.6609 34.8256 41.3637 34.6227 41.0353 34.4841C40.707 34.3454 40.3542 34.274 39.9978 34.274C39.6414 34.274 39.2887 34.3454 38.9604 34.4841C38.632 34.6227 38.3347 34.8256 38.0862 35.081C37.8376 35.3364 37.6426 35.639 37.513 35.971C37.3833 36.303 37.3215 36.6575 37.3311 37.0138V45.3342C37.3316 45.6833 37.2632 46.029 37.13 46.3516C36.9967 46.6742 36.8011 46.9673 36.5544 47.2142C36.3077 47.4611 36.0146 47.6569 35.6921 47.7904C35.3697 47.9239 35.024 47.9925 34.6749 47.9923C33.9681 47.9933 33.2896 47.7141 32.7881 47.2159C32.2866 46.7177 32.003 46.0411 31.9994 45.3342V27.8217C31.9994 27.1146 31.7186 26.4366 31.2187 25.9366C30.7188 25.4367 30.0407 25.1559 29.3337 25.1559C28.6267 25.1559 27.9486 25.4367 27.4486 25.9366C26.9487 26.4366 26.6678 27.1146 26.6678 27.8217V37.0002C26.6617 37.7031 26.3797 38.3754 25.8825 38.8723C25.3853 39.3691 24.7128 39.6507 24.0099 39.6563C23.3043 39.6542 22.6278 39.3744 22.127 38.8773C21.6263 38.3801 21.3415 37.7058 21.3343 37.0002V27.8217C21.3156 27.1269 21.0263 26.4668 20.5283 25.982C20.0302 25.4972 19.3626 25.226 18.6676 25.226C17.9725 25.226 17.3048 25.4972 16.8068 25.982C16.3087 26.4668 16.0195 27.1269 16.0008 27.8217V45.3342C15.9987 46.0385 15.718 46.7134 15.22 47.2115C14.7219 47.7095 14.047 47.9902 13.3427 47.9923C12.6357 47.9938 11.9569 47.7148 11.4553 47.2165C10.9537 46.7182 10.6703 46.0413 10.6672 45.3342V37.006C10.6768 36.6497 10.6149 36.2952 10.4852 35.9632C10.3555 35.6313 10.1607 35.3286 9.91213 35.0732C9.66354 34.8179 9.36627 34.6149 9.03793 34.4763C8.70959 34.3377 8.35679 34.2662 8.0004 34.2662C7.644 34.2662 7.29121 34.3377 6.96287 34.4763C6.63453 34.6149 6.33735 34.8179 6.08876 35.0732C5.84018 35.3286 5.64525 35.6313 5.51555 35.9632C5.38586 36.2952 5.32398 36.6497 5.33361 37.006C5.32645 37.7116 5.04169 38.386 4.54092 38.8831C4.04016 39.3802 3.36369 39.6601 2.65808 39.6621C1.95519 39.6565 1.2827 39.3749 0.785489 38.8781C0.288276 38.3812 0.00622542 37.7089 0.00012207 37.006V11.0057C0.00213845 10.2997 0.282247 9.62305 0.779789 9.12223C1.27733 8.62141 1.95216 8.33681 2.65808 8.33016H2.65618ZM10.6653 18.6762C10.6749 18.3199 10.613 17.9653 10.4833 17.6334C10.3537 17.3014 10.1587 16.9988 9.91013 16.7434C9.66155 16.488 9.36437 16.2851 9.03603 16.1464C8.70769 16.0078 8.35489 15.9364 7.9985 15.9364C7.6421 15.9364 7.28931 16.0078 6.96097 16.1464C6.63263 16.2851 6.33535 16.488 6.08677 16.7434C5.83818 16.9988 5.64334 17.3014 5.51365 17.6334C5.38396 17.9653 5.32208 18.3199 5.33171 18.6762V29.3433C5.35048 30.0381 5.63972 30.6981 6.13779 31.1829C6.63586 31.6677 7.30344 31.939 7.9985 31.939C8.69355 31.939 9.36114 31.6677 9.85921 31.1829C10.3573 30.6981 10.6465 30.0381 10.6653 29.3433V18.6762ZM37.3233 29.3433V18.6762C37.3137 18.3199 37.3755 17.9653 37.5052 17.6334C37.6348 17.3014 37.8298 16.9988 38.0784 16.7434C38.327 16.488 38.6242 16.2851 38.9526 16.1464C39.2809 16.0078 39.6337 15.9364 39.9901 15.9364C40.3465 15.9364 40.6992 16.0078 41.0275 16.1464C41.3559 16.2851 41.6531 16.488 41.9017 16.7434C42.1503 16.9988 42.3452 17.3014 42.4749 17.6334C42.6046 17.9653 42.6664 18.3199 42.6568 18.6762V29.3433C42.638 30.0381 42.3489 30.6981 41.8508 31.1829C41.3527 31.6677 40.6852 31.939 39.9901 31.939C39.295 31.939 38.6274 31.6677 38.1293 31.1829C37.6312 30.6981 37.3421 30.0381 37.3233 29.3433Z" fill="#8896AB"/>
</g>
<defs>
<clipPath id="clip0_2451_14099">
<rect width="48" height="48" fill="white"/>
</clipPath>
</defs>
</svg>
