<svg width="176" height="44" viewBox="0 0 176 44" fill="none" xmlns="http://www.w3.org/2000/svg">
<g clip-path="url(#clip0_2451_14102)">
<path d="M39.4587 2.51614C39.7132 2.60574 39.9348 2.76962 40.0951 2.98659C40.2554 3.20355 40.3469 3.46361 40.3577 3.73314C40.4959 5.17248 40.5549 6.61834 40.5342 8.06415C40.519 8.72741 40.5038 9.39067 40.4597 10.0539C40.2102 9.95049 39.9744 9.84704 39.7234 9.74968C39.0906 9.5002 38.4714 9.26442 37.8371 9.04232C37.8523 8.7046 37.8675 8.38056 37.8675 8.04132C37.8812 6.9658 37.8523 5.87506 37.764 4.77064C36.7326 4.44661 35.6571 4.15149 34.5694 3.88679C33.2003 3.56276 31.8312 3.29655 30.4438 3.10488C29.6634 3.00295 28.9119 2.91319 28.1908 2.84017C27.4697 2.76715 26.7015 2.72303 25.9211 2.68805C25.3126 2.67283 24.7421 2.65914 24.1245 2.65914L23.2255 2.67284C22.9593 2.67284 22.6504 2.68805 22.3264 2.68805C21.546 2.71847 20.7945 2.77628 20.0567 2.84017C19.3189 2.90406 18.5841 3.00295 17.8037 3.10488C16.4346 3.29655 15.0487 3.56124 13.6781 3.88679C12.5873 4.15149 11.527 4.44661 10.4835 4.77064C10.304 7.19227 10.3682 9.62581 10.6752 12.0346C10.8381 13.3821 11.0742 14.7197 11.3825 16.0416C11.559 16.7931 11.7659 17.5446 11.991 18.2656L12.0063 18.325L12.0199 18.3843L12.0352 18.4436L12.0641 18.5014L12.0793 18.5608L12.0944 18.6201L12.1097 18.6794L12.1675 18.8407V18.8559L12.1827 18.9137L12.2862 19.1936L12.2998 19.2529L12.3896 19.4887L12.4033 19.5329C12.8583 20.8521 13.385 22.1456 13.9808 23.4075L14.0097 23.4516L14.025 23.4972L14.0386 23.5261L14.069 23.5703L14.0828 23.6144L14.098 23.6585L14.1269 23.6874C14.349 24.1437 14.5833 24.6001 14.8206 25.0565C14.997 25.3516 15.1582 25.665 15.321 25.9404C15.5127 26.2801 15.6897 26.5747 15.852 26.8242C16.3524 27.635 16.8818 28.4306 17.4432 29.1974C18.0045 29.9641 18.5765 30.7003 19.2109 31.4366C19.4472 31.7165 19.7124 32.0111 20.0065 32.3205C20.2864 32.6247 20.5511 32.929 20.8021 33.1891C21.4502 33.8524 22.1271 34.4867 22.8056 35.1044L23.0855 35.3402C22.8938 35.4923 22.7022 35.6444 22.4968 35.7965C21.9659 36.1936 21.4213 36.5769 20.8751 36.9603C17.9315 34.3214 15.399 31.2572 13.3617 27.8693V27.8541L13.3464 27.8404L13.3313 27.8252C13.2141 27.6335 13.1106 27.4418 13.0072 27.2806C12.8307 26.9565 12.639 26.631 12.4778 26.3222C11.991 25.4383 11.5484 24.5256 11.1224 23.5672C10.6965 22.6088 10.3268 21.6672 9.98757 20.724C9.51369 19.3907 9.11044 18.0334 8.77963 16.6577C7.77876 12.425 7.48024 8.05659 7.89585 3.72706C7.90831 3.45713 8.00213 3.19729 8.16504 2.9817C8.32795 2.76612 8.55233 2.60488 8.8086 2.51919C10.2081 2.0476 11.6381 1.63534 13.0818 1.28089C14.4965 0.956863 15.9539 0.672392 17.4432 0.456375C18.2038 0.35293 19.004 0.264699 19.8438 0.191679C20.6546 0.117138 21.4502 0.0593291 22.2306 0.0289041C22.5257 0.0289041 22.839 0.0136953 23.1737 0.0136953L24.1321 0L25.089 0.0136953C25.4283 0.0136953 25.7522 0.0289041 26.0321 0.0289041C26.8278 0.0593291 27.6234 0.117138 28.4342 0.191679C29.2739 0.264699 30.0695 0.35293 30.821 0.456375C32.3225 0.676956 33.7814 0.956863 35.1962 1.28089C36.6262 1.63534 38.0546 2.04152 39.4694 2.51919L39.4587 2.51614ZM30.8241 29.1989C31.355 28.4474 31.8889 27.6776 32.3712 26.885C32.5376 26.5862 32.8107 26.361 33.1357 26.2544C33.4608 26.1478 33.8141 26.1677 34.1252 26.31C36.6854 27.5337 39.0095 29.1997 40.9906 31.2313C41.2224 31.4449 41.3715 31.7334 41.4118 32.0461C41.4522 32.3587 41.3812 32.6756 41.2112 32.9411C40.799 33.5892 40.3426 34.2661 39.8862 34.9294C39.4298 35.5927 38.9278 36.2407 38.4425 36.8599C38.0881 37.3163 37.7047 37.7878 37.2924 38.2594C36.9395 38.6717 36.541 39.1281 36.0998 39.6149C35.4807 40.2933 34.8828 40.911 34.2743 41.5149H34.2591C33.6704 42.1052 33.0421 42.6802 32.388 43.2537C32.195 43.4417 31.9501 43.5675 31.6849 43.615C31.4197 43.6624 31.1463 43.6293 30.9001 43.5199C28.9609 42.6297 27.0938 41.5901 25.3156 40.4105C25.5514 40.234 25.7872 40.0576 26.023 39.8659C26.5235 39.4673 27.0255 39.0703 27.4956 38.6489C28.6972 39.4126 29.9421 40.106 31.2242 40.7254C31.6212 40.3572 32.0046 39.9891 32.4031 39.6057C33.0208 38.9972 33.5958 38.4131 34.1267 37.8228C34.4796 37.4547 34.8478 37.0135 35.2616 36.5419C35.6145 36.1145 35.9827 35.6718 36.3371 35.2017C36.8224 34.6115 37.265 34.0075 37.6925 33.3884C37.9283 33.0841 38.1489 32.7403 38.3695 32.4163C37.7064 31.7805 36.997 31.1948 36.2473 30.6638C35.5372 30.1489 34.7944 29.6809 34.0233 29.2628C33.6841 29.7785 33.3311 30.2805 32.9766 30.7658C32.359 31.6207 31.7247 32.4163 31.0766 33.183C30.7815 33.5207 30.5016 33.8311 30.2369 34.1262C30.1182 34.2783 29.9859 34.4061 29.8535 34.5521L29.8383 34.5674L29.8247 34.5826L29.8094 34.5963L29.7942 34.6115L29.7805 34.6267L29.7653 34.6419L29.7501 34.6556L29.7212 34.686V34.6997C28.3144 36.1815 26.8029 37.5602 25.1985 38.8253C22.774 40.687 20.1438 42.2642 17.3595 43.526C17.1065 43.6395 16.8245 43.6721 16.5522 43.6193C16.2799 43.5664 16.0306 43.4308 15.8383 43.2309C15.1887 42.6711 14.5848 42.096 13.9808 41.521C13.3723 40.9323 12.773 40.304 12.1553 39.6209C11.699 39.1341 11.3019 38.6778 10.9474 38.2655C10.5504 37.7939 10.167 37.3223 9.7989 36.866C9.3121 36.2331 8.84052 35.5988 8.36894 34.9355C7.89735 34.2722 7.45619 33.5953 7.04393 32.9472C6.71839 32.4315 6.38062 31.8823 6.04138 31.3119C5.73713 30.7521 5.42223 30.1922 5.12863 29.6385C4.7468 28.9311 4.39237 28.2085 4.05313 27.4875C3.71389 26.7664 3.4203 26.0423 3.11149 25.2908C2.55167 23.9217 2.06488 22.5221 1.63741 21.0921C1.20994 19.6622 0.857005 18.22 0.572532 16.7611C0.517153 16.4924 0.547032 16.2131 0.658028 15.9622C0.769023 15.7113 0.95557 15.5013 1.19165 15.3616C2.90697 14.1423 4.71461 13.0585 6.59818 12.1198C6.6712 12.8272 6.76093 13.5194 6.87807 14.2115C6.90697 14.4473 6.95109 14.6831 6.99521 14.9189C5.74477 15.5729 4.53475 16.3014 3.37162 17.1004C3.60741 18.2048 3.88731 19.2803 4.19612 20.3269C4.59469 21.6824 5.06633 23.0074 5.58203 24.2822C5.86194 24.9744 6.15553 25.6665 6.47956 26.3587C6.80358 27.0509 7.12911 27.7278 7.48204 28.3774C7.76195 28.9235 8.0571 29.4423 8.35222 29.9686C8.64583 30.4554 8.96072 30.9711 9.29387 31.5157C9.70765 32.1638 10.1199 32.7981 10.5473 33.3869C10.9748 33.9756 11.4312 34.6039 11.9028 35.2002C12.2709 35.6703 12.6239 36.1129 12.992 36.5404C13.3906 37.012 13.7739 37.4532 14.1117 37.8213C14.6578 38.4116 15.2313 39.0003 15.8505 39.6042C16.2338 39.9876 16.6324 40.3557 17.0142 40.7102C19.2311 39.6438 21.334 38.3553 23.2909 36.8644C26.1588 34.6896 28.695 32.1089 30.8196 29.2034L30.8241 29.1989ZM47.0467 15.3555C47.282 15.4968 47.4686 15.7064 47.5817 15.9564C47.6947 16.2065 47.7289 16.4851 47.6796 16.755C47.3845 18.2139 47.0315 19.6576 46.604 21.086C46.1765 22.5145 45.6913 23.9156 45.1452 25.2847C45.0898 25.4213 45.0098 25.5466 44.9093 25.6544C44.6782 25.9223 44.3509 26.0886 43.9981 26.117C43.6454 26.1455 43.2957 26.0339 43.0245 25.8065C42.029 24.9399 40.9754 24.1424 39.871 23.4196C38.7858 22.7098 37.6534 22.075 36.4816 21.5196C36.1743 21.381 35.9299 21.1324 35.7964 20.8228C35.663 20.5132 35.6503 20.1648 35.7606 19.8462C36.2013 18.6064 36.57 17.3422 36.865 16.0598C36.9973 15.5593 37.1008 15.0573 37.2042 14.5386C37.5434 14.6709 37.8675 14.8048 38.2068 14.9508C38.7072 15.1729 39.2077 15.4072 39.7082 15.6445C39.6352 15.9975 39.5561 16.3367 39.4724 16.6759C39.2381 17.6632 38.9719 18.6536 38.6631 19.6226C39.5759 20.0942 40.4749 20.6236 41.3435 21.1834C42.0068 21.6261 42.6701 22.0961 43.3044 22.5829C43.5691 21.8467 43.8201 21.0952 44.0407 20.33C44.3647 19.2834 44.6294 18.2002 44.8804 17.1034C42.947 15.7814 40.8892 14.6513 38.7361 13.7293C37.41 13.1562 36.0524 12.6589 34.6698 12.24C33.4065 11.8584 32.1225 11.5486 30.8241 11.312C29.9113 11.1508 28.9682 11.0184 28.0098 10.915C27.0514 10.8115 26.1097 10.7522 25.1666 10.7233L24.6372 10.7081H23.6058L23.0901 10.7233C22.1469 10.7522 21.1885 10.8115 20.2453 10.915C19.3021 11.0184 18.3453 11.1508 17.4173 11.312C16.1349 11.5478 14.854 11.8718 13.5716 12.24C13.0848 12.3921 12.5995 12.5442 12.1127 12.7116C12.0686 12.4317 12.0245 12.167 11.9956 11.887C11.9073 11.2542 11.8435 10.6351 11.8039 10.0007C15.779 8.68644 19.9393 8.01874 24.1261 8.02307C29.3048 8.03017 34.4331 9.04066 39.2275 10.9986C41.9925 12.1508 44.6173 13.614 47.0512 15.3601L47.0467 15.3555ZM22.4998 27.0098C22.2793 26.7299 22.0876 26.4789 21.9111 26.2583C20.5092 24.339 19.3188 22.2738 18.3605 20.0988C18.2282 19.8051 18.0943 19.51 17.9772 19.2149C17.86 18.9198 17.7703 18.6703 17.6729 18.3904C17.6308 18.2931 17.6011 18.1909 17.5847 18.0861C17.5533 17.9129 17.5567 17.7351 17.5947 17.5632C17.6327 17.3912 17.7046 17.2286 17.8061 17.0848C17.9076 16.9409 18.0368 16.8187 18.1861 16.7252C18.3353 16.6318 18.5016 16.569 18.6754 16.5405C18.9553 16.4812 19.2839 16.4371 19.6185 16.3884L20.5754 16.2545C21.1657 16.1967 21.7544 16.1526 22.3583 16.1024C22.9623 16.0522 23.5753 16.0583 24.1275 16.0583C24.6798 16.0583 25.2761 16.072 25.9089 16.1024C26.5174 16.1465 27.1032 16.1907 27.6782 16.2545L28.635 16.3884C28.9894 16.4325 29.2983 16.4767 29.5934 16.5405C29.6686 16.5527 29.7425 16.572 29.814 16.5984C30.1474 16.7187 30.4197 16.966 30.5716 17.2863C30.7235 17.6066 30.7426 17.9739 30.6248 18.3082C30.5061 18.6125 30.389 18.9259 30.2703 19.221C30.1517 19.5161 30.0345 19.8112 29.9022 20.1048C29.4236 21.189 28.8873 22.2467 28.2957 23.2736C27.7014 24.3078 27.0472 25.3065 26.3364 26.2644C26.1153 26.5575 25.9241 26.808 25.7629 27.0159C25.5119 27.3201 25.3202 27.5757 25.1544 27.7522C25.1025 27.818 25.0427 27.8773 24.9764 27.9286C24.8426 28.0414 24.6877 28.1263 24.5207 28.1785C24.3537 28.2308 24.1781 28.2492 24.0039 28.2328C23.8297 28.2163 23.6605 28.1654 23.5062 28.0829C23.3519 28.0003 23.2157 27.8879 23.1053 27.7522C22.8847 27.5012 22.693 27.2654 22.4968 27.0159L22.4998 27.0098Z" fill="#8896AB"/>
</g>
<path d="M61.9898 19.1519C62.9323 17.6857 64.5905 16.9526 66.9643 16.9526V20.0682C66.6851 20.0159 66.432 19.9897 66.2051 19.9897C64.9309 19.9897 63.936 20.365 63.2203 21.1155C62.5047 21.8486 62.1469 22.9133 62.1469 24.3097V31.0908H58.8741V17.1097H61.9898V19.1519Z" fill="#8896AB"/>
<path d="M82.7561 24.1788C82.7561 24.4057 82.7386 24.7286 82.7037 25.1475H71.7335C71.9255 26.1773 72.423 26.9977 73.2259 27.6086C74.0462 28.2021 75.0586 28.4988 76.263 28.4988C77.799 28.4988 79.0644 27.9926 80.0593 26.9802L81.8135 28.9962C81.1851 29.7468 80.391 30.3141 79.431 30.6981C78.471 31.0821 77.3888 31.2741 76.1844 31.2741C74.6484 31.2741 73.2957 30.9686 72.1262 30.3577C70.9568 29.7468 70.0491 28.9002 69.4033 27.8181C68.775 26.7184 68.4608 25.4792 68.4608 24.1002C68.4608 22.7388 68.7662 21.517 69.3771 20.4348C70.0055 19.3352 70.8695 18.4799 71.9691 17.869C73.0688 17.2581 74.3081 16.9526 75.687 16.9526C77.0484 16.9526 78.2615 17.2581 79.3262 17.869C80.4084 18.4624 81.2462 19.309 81.8397 20.4086C82.4506 21.4908 82.7561 22.7475 82.7561 24.1788ZM75.687 19.5708C74.6397 19.5708 73.7495 19.885 73.0164 20.5133C72.3008 21.1242 71.8644 21.9446 71.7073 22.9744H79.6404C79.5008 21.9621 79.0731 21.1417 78.3575 20.5133C77.6419 19.885 76.7517 19.5708 75.687 19.5708Z" fill="#8896AB"/>
<path d="M90.2197 31.2741C89.0852 31.2741 87.9768 31.1257 86.8946 30.829C85.8124 30.5322 84.9484 30.157 84.3026 29.7032L85.5594 27.2159C86.1877 27.6348 86.9383 27.9752 87.811 28.237C88.7012 28.4813 89.5739 28.6035 90.4292 28.6035C92.3841 28.6035 93.3615 28.0886 93.3615 27.0588C93.3615 26.5701 93.1084 26.2297 92.6023 26.0377C92.1135 25.8457 91.3194 25.6624 90.2197 25.4879C89.0677 25.3133 88.1252 25.1126 87.3921 24.8857C86.6764 24.6588 86.0481 24.2661 85.507 23.7075C84.9834 23.1315 84.7215 22.3373 84.7215 21.325C84.7215 19.9984 85.2714 18.9424 86.371 18.157C87.4881 17.3541 88.9892 16.9526 90.8743 16.9526C91.8343 16.9526 92.7943 17.0661 93.7543 17.293C94.7143 17.5024 95.4997 17.7904 96.1106 18.157L94.8539 20.6442C93.667 19.9461 92.3317 19.597 90.8481 19.597C89.8881 19.597 89.155 19.7453 88.6488 20.0421C88.1601 20.3213 87.9157 20.6966 87.9157 21.1679C87.9157 21.6915 88.1775 22.0668 88.7012 22.2937C89.2423 22.5032 90.0714 22.7039 91.1884 22.8959C92.3055 23.0704 93.2219 23.2712 93.9375 23.4981C94.6532 23.725 95.2641 24.109 95.7703 24.6501C96.2939 25.1912 96.5557 25.9592 96.5557 26.9541C96.5557 28.2632 95.9884 29.3104 94.8539 30.0959C93.7194 30.8813 92.1746 31.2741 90.2197 31.2741Z" fill="#8896AB"/>
<path d="M112.517 24.1788C112.517 24.4057 112.5 24.7286 112.465 25.1475H101.495C101.687 26.1773 102.184 26.9977 102.987 27.6086C103.808 28.2021 104.82 28.4988 106.024 28.4988C107.56 28.4988 108.826 27.9926 109.821 26.9802L111.575 28.9962C110.947 29.7468 110.152 30.3141 109.192 30.6981C108.232 31.0821 107.15 31.2741 105.946 31.2741C104.41 31.2741 103.057 30.9686 101.888 30.3577C100.718 29.7468 99.8105 28.9002 99.1647 27.8181C98.5363 26.7184 98.2221 25.4792 98.2221 24.1002C98.2221 22.7388 98.5276 21.517 99.1385 20.4348C99.7669 19.3352 100.631 18.4799 101.731 17.869C102.83 17.2581 104.069 16.9526 105.448 16.9526C106.81 16.9526 108.023 17.2581 109.088 17.869C110.17 18.4624 111.008 19.309 111.601 20.4086C112.212 21.4908 112.517 22.7475 112.517 24.1788ZM105.448 19.5708C104.401 19.5708 103.511 19.885 102.778 20.5133C102.062 21.1242 101.626 21.9446 101.469 22.9744H109.402C109.262 21.9621 108.835 21.1417 108.119 20.5133C107.403 19.885 106.513 19.5708 105.448 19.5708Z" fill="#8896AB"/>
<path d="M122.076 31.2741C120.627 31.2741 119.327 30.9686 118.175 30.3577C117.023 29.7468 116.124 28.9002 115.478 27.8181C114.832 26.7184 114.509 25.4792 114.509 24.1002C114.509 22.7213 114.832 21.4908 115.478 20.4086C116.124 19.3264 117.014 18.4799 118.148 17.869C119.3 17.2581 120.609 16.9526 122.076 16.9526C123.455 16.9526 124.659 17.2319 125.689 17.7904C126.736 18.349 127.521 19.1519 128.045 20.1992L125.532 21.6653C125.13 21.0195 124.624 20.5395 124.013 20.2253C123.42 19.8937 122.765 19.7279 122.049 19.7279C120.828 19.7279 119.815 20.1293 119.012 20.9322C118.209 21.7177 117.808 22.7737 117.808 24.1002C117.808 25.4268 118.201 26.4915 118.986 27.2944C119.789 28.0799 120.81 28.4726 122.049 28.4726C122.765 28.4726 123.42 28.3155 124.013 28.0013C124.624 27.6697 125.13 27.181 125.532 26.5352L128.045 28.0013C127.504 29.0486 126.71 29.8602 125.663 30.4362C124.633 30.9948 123.437 31.2741 122.076 31.2741Z" fill="#8896AB"/>
<path d="M144.41 17.1097V31.0908H141.295V29.3104C140.771 29.9388 140.116 30.4275 139.331 30.7766C138.545 31.1082 137.699 31.2741 136.791 31.2741C134.924 31.2741 133.449 30.7592 132.367 29.7293C131.302 28.6821 130.769 27.1373 130.769 25.0952V17.1097H134.042V24.6501C134.042 25.9068 134.321 26.8493 134.88 27.4777C135.456 28.0886 136.268 28.3941 137.315 28.3941C138.484 28.3941 139.409 28.0362 140.09 27.3206C140.788 26.5875 141.137 25.5402 141.137 24.1788V17.1097H144.41Z" fill="#8896AB"/>
<path d="M151.811 19.1519C152.753 17.6857 154.412 16.9526 156.785 16.9526V20.0682C156.506 20.0159 156.253 19.9897 156.026 19.9897C154.752 19.9897 153.757 20.365 153.041 21.1155C152.326 21.8486 151.968 22.9133 151.968 24.3097V31.0908H148.695V17.1097H151.811V19.1519Z" fill="#8896AB"/>
<path d="M167.311 16.9526C168.673 16.9526 169.886 17.2493 170.951 17.8428C172.033 18.4362 172.879 19.2741 173.49 20.3562C174.101 21.4384 174.407 22.6864 174.407 24.1002C174.407 25.5141 174.101 26.7708 173.49 27.8704C172.879 28.9526 172.033 29.7904 170.951 30.3839C169.886 30.9773 168.673 31.2741 167.311 31.2741C166.351 31.2741 165.47 31.1082 164.667 30.7766C163.882 30.445 163.218 29.9475 162.677 29.2842V31.0908H159.562V11.6639H162.834V18.8115C163.393 18.2006 164.047 17.7381 164.798 17.4239C165.566 17.1097 166.404 16.9526 167.311 16.9526ZM166.945 28.4726C168.149 28.4726 169.135 28.0712 169.903 27.2682C170.689 26.4653 171.082 25.4093 171.082 24.1002C171.082 22.7912 170.689 21.7352 169.903 20.9322C169.135 20.1293 168.149 19.7279 166.945 19.7279C166.159 19.7279 165.453 19.9112 164.824 20.2777C164.196 20.6268 163.698 21.133 163.332 21.7962C162.965 22.4595 162.782 23.2275 162.782 24.1002C162.782 24.973 162.965 25.741 163.332 26.4042C163.698 27.0675 164.196 27.5824 164.824 27.949C165.453 28.2981 166.159 28.4726 166.945 28.4726Z" fill="#8896AB"/>
<defs>
<clipPath id="clip0_2451_14102">
<rect width="48" height="43.6364" fill="white"/>
</clipPath>
</defs>
</svg>
