<svg width="155" height="44" viewBox="0 0 155 44" fill="none" xmlns="http://www.w3.org/2000/svg">
<path d="M52.4815 14.5484C52.4815 22.4029 60.9251 23.4633 60.9251 29.1185C60.9251 31.0822 60.0611 31.7891 58.6866 31.7891C57.312 31.7891 56.448 31.0822 56.448 29.1185V27.1549H52.3636V28.8436C52.3636 33.2422 54.5629 35.7556 58.8044 35.7556C63.0458 35.7556 65.2451 33.2422 65.2451 28.8436C65.2451 20.9891 56.8015 19.9287 56.8015 14.2734C56.8015 12.3098 57.5869 11.5636 58.9615 11.5636C60.336 11.5636 61.1215 12.3098 61.1215 14.2734V15.4124H65.2058V14.5484C65.2058 10.1498 63.0458 7.63635 58.8436 7.63635C54.6415 7.63635 52.4815 10.1498 52.4815 14.5484Z" fill="#8896AB"/>
<path d="M71.4968 35.4414H75.8168V26.3302L81.2757 7.95053H77.1521L73.8532 20.4785L70.5543 7.95053H66.0379L71.4968 26.3302V35.4414Z" fill="#8896AB"/>
<path d="M88.9922 7.95053H82.9835V35.4414H86.7537V16.0014L89.974 35.4414H94.0584L97.0431 15.7265V35.4414H101.127V7.95053H95.1188L92.1733 27.4691L88.9922 7.95053Z" fill="#8896AB"/>
<path d="M103.013 11.8778H107.53V35.4414H111.85V11.8778H116.366V7.95053H103.013V11.8778Z" fill="#8896AB"/>
<path d="M131.7 35.4414C131.268 34.4204 131.229 33.4385 131.229 32.1033V27.8618C131.229 24.9949 130.522 22.9134 128.362 22.0102C130.286 21.1069 131.189 19.2611 131.189 16.4334V14.2734C131.189 10.032 129.265 7.95053 124.788 7.95053H118.269V35.4414H122.589V24.2487H124.081C126.045 24.2487 126.909 25.1913 126.909 27.744V32.064C126.909 34.3025 127.066 34.7345 127.301 35.4414H131.7ZM124.67 11.8778C126.202 11.8778 126.869 12.7418 126.869 14.7054V17.4153C126.869 19.6145 125.887 20.3214 124.277 20.3214H122.589V11.8778H124.67Z" fill="#8896AB"/>
<path d="M134.07 35.4414H138.39V7.95053H134.07V35.4414Z" fill="#8896AB"/>
<path d="M149.992 25.1913V29.1185C149.992 31.0822 149.128 31.7891 147.753 31.7891C146.379 31.7891 145.515 31.0822 145.515 29.1185V14.2734C145.515 12.3098 146.379 11.5636 147.753 11.5636C149.128 11.5636 149.992 12.3098 149.992 14.2734V17.2189H154.076V14.5484C154.076 10.1498 151.877 7.63635 147.636 7.63635C143.394 7.63635 141.195 10.1498 141.195 14.5484V28.8436C141.195 33.2422 143.394 35.7556 147.636 35.7556C151.877 35.7556 154.076 33.2422 154.076 28.8436V25.1913H149.992Z" fill="#8896AB"/>
<g clip-path="url(#clip0_2451_14100)">
<path fill-rule="evenodd" clip-rule="evenodd" d="M14.8434 13.8349L12.4828 17.9161L10.2366 14.0199L12.5855 9.93873H28.9925L32.4761 3.89624H9.09886L4.49213 11.8868C7.94792 17.8569 11.3984 23.827 14.8434 29.7971H21.8108C20.0608 26.768 18.3119 23.7394 16.5639 20.7113L16.0795 19.873H32.0475L38.915 31.7642L32.0475 43.6364H6.85277L0.0557184 31.6498L3.46894 25.7218L5.72972 29.6165L4.50682 31.7496L9.11355 39.7402H29.7881L34.4096 31.7496L29.8028 23.759H22.8355C24.3133 26.333 25.7921 28.9064 27.2719 31.4794L27.4393 31.7452L26.3162 33.6933H12.5972C8.44461 26.5126 4.29736 19.3372 0.1555 12.1672L-0.00012207 11.8824L6.85277 -0.00878906H39.2409L31.2562 13.8349H14.8434Z" fill="#8896AB"/>
</g>
<defs>
<clipPath id="clip0_2451_14100">
<rect width="39.2425" height="43.6364" fill="white"/>
</clipPath>
</defs>
</svg>
