<svg width="1140" height="568" viewBox="0 0 1140 568" fill="none" xmlns="http://www.w3.org/2000/svg">
<g clip-path="url(#clip0_4003_323)">
<rect width="1140" height="568" rx="24" fill="#2A3342"/>
<g opacity="0.4">
<rect width="1440" height="1320" transform="translate(0 -356)" fill="#2A3342"/>
<line x1="1464" y1="316.5" x2="-24" y2="316.5" stroke="#333F51"/>
<line x1="1464" y1="340.5" x2="-24" y2="340.5" stroke="#333F51"/>
<line x1="1464" y1="364.5" x2="-24" y2="364.5" stroke="#333F51"/>
<line x1="1464" y1="388.5" x2="-24" y2="388.5" stroke="#333F51"/>
<line x1="1464" y1="412.5" x2="-24" y2="412.5" stroke="#333F51"/>
<line x1="1464" y1="436.5" x2="-24" y2="436.5" stroke="#333F51"/>
<line x1="1464" y1="460.5" x2="-24" y2="460.5" stroke="#333F51"/>
<line x1="1464" y1="484.5" x2="-24" y2="484.5" stroke="#333F51"/>
<line x1="1464" y1="508.5" x2="-24" y2="508.5" stroke="#333F51"/>
<line x1="1464" y1="532.5" x2="-24" y2="532.5" stroke="#333F51"/>
<line x1="1464" y1="556.5" x2="-24" y2="556.5" stroke="#333F51"/>
<line x1="24.5" y1="292" x2="24.5" y2="1012" stroke="#333F51"/>
<line x1="24.5" y1="292" x2="24.5" y2="1012" stroke="#333F51"/>
<line x1="48.5" y1="292" x2="48.5" y2="1012" stroke="#333F51"/>
<line x1="72.5" y1="292" x2="72.5" y2="1012" stroke="#333F51"/>
<line x1="96.5" y1="292" x2="96.5" y2="1012" stroke="#333F51"/>
<line x1="120.5" y1="292" x2="120.5" y2="1012" stroke="#333F51"/>
<line x1="144.5" y1="292" x2="144.5" y2="1012" stroke="#333F51"/>
<line x1="168.5" y1="292" x2="168.5" y2="1012" stroke="#333F51"/>
<line x1="192.5" y1="292" x2="192.5" y2="1012" stroke="#333F51"/>
<line x1="216.5" y1="292" x2="216.5" y2="1012" stroke="#333F51"/>
<line x1="240.5" y1="292" x2="240.5" y2="1012" stroke="#333F51"/>
<line x1="264.5" y1="292" x2="264.5" y2="1012" stroke="#333F51"/>
<line x1="288.5" y1="292" x2="288.5" y2="1012" stroke="#333F51"/>
<line x1="312.5" y1="292" x2="312.5" y2="1012" stroke="#333F51"/>
<line x1="336.5" y1="292" x2="336.5" y2="1012" stroke="#333F51"/>
<line x1="360.5" y1="292" x2="360.5" y2="1012" stroke="#333F51"/>
<line x1="384.5" y1="292" x2="384.5" y2="1012" stroke="#333F51"/>
<line x1="408.5" y1="292" x2="408.5" y2="1012" stroke="#333F51"/>
<line x1="432.5" y1="292" x2="432.5" y2="1012" stroke="#333F51"/>
<line x1="456.5" y1="292" x2="456.5" y2="1012" stroke="#333F51"/>
<line x1="480.5" y1="292" x2="480.5" y2="1012" stroke="#333F51"/>
<line x1="504.5" y1="292" x2="504.5" y2="1012" stroke="#333F51"/>
<line x1="528.5" y1="292" x2="528.5" y2="1012" stroke="#333F51"/>
<line x1="552.5" y1="292" x2="552.5" y2="1012" stroke="#333F51"/>
<line x1="576.5" y1="292" x2="576.5" y2="1012" stroke="#333F51"/>
<line x1="600.5" y1="292" x2="600.5" y2="1012" stroke="#333F51"/>
<line x1="624.5" y1="292" x2="624.5" y2="1012" stroke="#333F51"/>
<line x1="648.5" y1="292" x2="648.5" y2="1012" stroke="#333F51"/>
<line x1="672.5" y1="292" x2="672.5" y2="1012" stroke="#333F51"/>
<line x1="696.5" y1="292" x2="696.5" y2="1012" stroke="#333F51"/>
<line x1="720.5" y1="292" x2="720.5" y2="1012" stroke="#333F51"/>
<line x1="744.5" y1="292" x2="744.5" y2="1012" stroke="#333F51"/>
<line x1="768.5" y1="292" x2="768.5" y2="1012" stroke="#333F51"/>
<line x1="792.5" y1="292" x2="792.5" y2="1012" stroke="#333F51"/>
<line x1="816.5" y1="292" x2="816.5" y2="1012" stroke="#333F51"/>
<line x1="840.5" y1="292" x2="840.5" y2="1012" stroke="#333F51"/>
<line x1="864.5" y1="292" x2="864.5" y2="1012" stroke="#333F51"/>
<line x1="888.5" y1="292" x2="888.5" y2="1012" stroke="#333F51"/>
<line x1="912.5" y1="292" x2="912.5" y2="1012" stroke="#333F51"/>
<line x1="936.5" y1="292" x2="936.5" y2="1012" stroke="#333F51"/>
<line x1="960.5" y1="292" x2="960.5" y2="1012" stroke="#333F51"/>
<line x1="984.5" y1="292" x2="984.5" y2="1012" stroke="#333F51"/>
<line x1="1008.5" y1="292" x2="1008.5" y2="1012" stroke="#333F51"/>
<line x1="1032.5" y1="292" x2="1032.5" y2="1012" stroke="#333F51"/>
<line x1="1056.5" y1="292" x2="1056.5" y2="1012" stroke="#333F51"/>
<line x1="1080.5" y1="292" x2="1080.5" y2="1012" stroke="#333F51"/>
<line x1="1104.5" y1="292" x2="1104.5" y2="1012" stroke="#333F51"/>
<line x1="1128.5" y1="292" x2="1128.5" y2="1012" stroke="#333F51"/>
<line x1="0.5" y1="-404" x2="0.499969" y2="316" stroke="#333F51"/>
<line x1="1464" y1="4.5" x2="-24" y2="4.5" stroke="#333F51"/>
<line x1="1464" y1="28.5" x2="-24" y2="28.5" stroke="#333F51"/>
<line x1="1464" y1="52.5" x2="-24" y2="52.5" stroke="#333F51"/>
<line x1="1464" y1="76.5" x2="-24" y2="76.5" stroke="#333F51"/>
<line x1="1464" y1="100.5" x2="-24" y2="100.5" stroke="#333F51"/>
<line x1="1464" y1="124.5" x2="-24" y2="124.5" stroke="#333F51"/>
<line x1="1464" y1="148.5" x2="-24" y2="148.5" stroke="#333F51"/>
<line x1="1464" y1="172.5" x2="-24" y2="172.5" stroke="#333F51"/>
<line x1="1464" y1="196.5" x2="-24" y2="196.5" stroke="#333F51"/>
<line x1="1464" y1="220.5" x2="-24" y2="220.5" stroke="#333F51"/>
<line x1="1464" y1="244.5" x2="-24" y2="244.5" stroke="#333F51"/>
<line x1="1464" y1="268.5" x2="-24" y2="268.5" stroke="#333F51"/>
<line x1="1464" y1="292.5" x2="-24" y2="292.5" stroke="#333F51"/>
<line x1="24.5" y1="-404" x2="24.5" y2="316" stroke="#333F51"/>
<line x1="24.5" y1="-404" x2="24.5" y2="316" stroke="#333F51"/>
<line x1="48.5" y1="-404" x2="48.5" y2="316" stroke="#333F51"/>
<line x1="72.5" y1="-404" x2="72.5" y2="316" stroke="#333F51"/>
<line x1="96.5" y1="-404" x2="96.5" y2="316" stroke="#333F51"/>
<line x1="120.5" y1="-404" x2="120.5" y2="316" stroke="#333F51"/>
<line x1="144.5" y1="-404" x2="144.5" y2="316" stroke="#333F51"/>
<line x1="168.5" y1="-404" x2="168.5" y2="316" stroke="#333F51"/>
<line x1="192.5" y1="-404" x2="192.5" y2="316" stroke="#333F51"/>
<line x1="216.5" y1="-404" x2="216.5" y2="316" stroke="#333F51"/>
<line x1="240.5" y1="-404" x2="240.5" y2="316" stroke="#333F51"/>
<line x1="264.5" y1="-404" x2="264.5" y2="316" stroke="#333F51"/>
<line x1="288.5" y1="-404" x2="288.5" y2="316" stroke="#333F51"/>
<line x1="312.5" y1="-404" x2="312.5" y2="316" stroke="#333F51"/>
<line x1="336.5" y1="-404" x2="336.5" y2="316" stroke="#333F51"/>
<line x1="360.5" y1="-404" x2="360.5" y2="316" stroke="#333F51"/>
<line x1="384.5" y1="-404" x2="384.5" y2="316" stroke="#333F51"/>
<line x1="408.5" y1="-404" x2="408.5" y2="316" stroke="#333F51"/>
<line x1="432.5" y1="-404" x2="432.5" y2="316" stroke="#333F51"/>
<line x1="456.5" y1="-404" x2="456.5" y2="316" stroke="#333F51"/>
<line x1="480.5" y1="-404" x2="480.5" y2="316" stroke="#333F51"/>
<line x1="504.5" y1="-404" x2="504.5" y2="316" stroke="#333F51"/>
<line x1="528.5" y1="-404" x2="528.5" y2="316" stroke="#333F51"/>
<line x1="552.5" y1="-404" x2="552.5" y2="316" stroke="#333F51"/>
<line x1="576.5" y1="-404" x2="576.5" y2="316" stroke="#333F51"/>
<line x1="600.5" y1="-404" x2="600.5" y2="316" stroke="#333F51"/>
<line x1="624.5" y1="-404" x2="624.5" y2="316" stroke="#333F51"/>
<line x1="648.5" y1="-404" x2="648.5" y2="316" stroke="#333F51"/>
<line x1="672.5" y1="-404" x2="672.5" y2="316" stroke="#333F51"/>
<line x1="696.5" y1="-404" x2="696.5" y2="316" stroke="#333F51"/>
<line x1="720.5" y1="-404" x2="720.5" y2="316" stroke="#333F51"/>
<line x1="744.5" y1="-404" x2="744.5" y2="316" stroke="#333F51"/>
<line x1="768.5" y1="-404" x2="768.5" y2="316" stroke="#333F51"/>
<line x1="792.5" y1="-404" x2="792.5" y2="316" stroke="#333F51"/>
<line x1="816.5" y1="-404" x2="816.5" y2="316" stroke="#333F51"/>
<line x1="840.5" y1="-404" x2="840.5" y2="316" stroke="#333F51"/>
<line x1="864.5" y1="-404" x2="864.5" y2="316" stroke="#333F51"/>
<line x1="888.5" y1="-404" x2="888.5" y2="316" stroke="#333F51"/>
<line x1="912.5" y1="-404" x2="912.5" y2="316" stroke="#333F51"/>
<line x1="936.5" y1="-404" x2="936.5" y2="316" stroke="#333F51"/>
<line x1="960.5" y1="-404" x2="960.5" y2="316" stroke="#333F51"/>
<line x1="984.5" y1="-404" x2="984.5" y2="316" stroke="#333F51"/>
<line x1="1008.5" y1="-404" x2="1008.5" y2="316" stroke="#333F51"/>
<line x1="1032.5" y1="-404" x2="1032.5" y2="316" stroke="#333F51"/>
<line x1="1056.5" y1="-404" x2="1056.5" y2="316" stroke="#333F51"/>
<line x1="1080.5" y1="-404" x2="1080.5" y2="316" stroke="#333F51"/>
<line x1="1104.5" y1="-404" x2="1104.5" y2="316" stroke="#333F51"/>
<line x1="1128.5" y1="-404" x2="1128.5" y2="316" stroke="#333F51"/>
</g>
<rect width="1140" height="568" fill="url(#paint0_radial_4003_323)"/>
</g>
<mask id="mask0_4003_323" style="mask-type:alpha" maskUnits="userSpaceOnUse" x="-119" y="-119" width="279" height="279">
<circle cx="20.5" cy="20.5" r="137.576" fill="#C4C4C4" stroke="#F8BB54" stroke-width="3.84828"/>
</mask>
<g mask="url(#mask0_4003_323)">
<path d="M-200.071 0.287015C-200.071 0.287015 -90.9613 -17.3688 -62.8965 -85.5184C-36.1815 -150.519 74.5591 -165.87 74.5591 -165.87" stroke="#F59E0B" stroke-width="4.32558" stroke-miterlimit="10"/>
<path d="M-200.071 20.5295C-200.071 20.5295 -76.2259 1.01813 -44.3929 -75.7909C-14.1348 -149.001 111.454 -165.87 111.454 -165.87" stroke="#F59E0B" stroke-width="4.32558" stroke-miterlimit="10"/>
<path d="M-200.071 40.828C-200.071 40.828 -61.5467 19.461 -25.9455 -66.0635C7.96827 -147.539 148.405 -165.87 148.405 -165.87" stroke="#F59E0B" stroke-width="4.32558" stroke-miterlimit="10"/>
<path d="M-200.071 61.0704C-200.071 61.0704 -46.8113 37.7915 -7.44183 -56.3356C30.0154 -146.021 185.356 -165.87 185.356 -165.87" stroke="#F59E0B" stroke-width="4.32558" stroke-miterlimit="10"/>
<path d="M-200.071 81.3129C-200.071 81.3129 -32.0758 56.1785 11.0054 -46.6641C52.0621 -144.503 222.307 -165.87 222.307 -165.87" stroke="#F59E0B" stroke-width="4.32558" stroke-miterlimit="10"/>
<path d="M-200.071 101.612C-200.071 101.612 -17.3969 74.6219 29.5091 -36.8806C74.1092 -143.041 259.202 -165.87 259.202 -165.87" stroke="#F59E0B" stroke-width="4.32558" stroke-miterlimit="10"/>
<path d="M-200.071 121.853C-200.071 121.853 -2.66119 93.0088 47.9567 -27.1527C96.1559 -141.523 296.153 -165.87 296.153 -165.87" stroke="#F59E0B" stroke-width="4.32558" stroke-miterlimit="10"/>
<path d="M-200.071 142.152C-200.071 142.152 12.0741 111.395 66.4604 -17.4253C118.203 -140.005 333.104 -165.87 333.104 -165.87" stroke="#F59E0B" stroke-width="4.32558" stroke-miterlimit="10"/>
<path d="M-200.071 162.396C-200.071 162.396 26.7533 129.783 84.9076 -7.69737C140.25 -138.542 370.054 -165.87 370.054 -165.87" stroke="#F59E0B" stroke-width="4.32558" stroke-miterlimit="10"/>
<path d="M-200.071 182.636C-200.071 182.636 41.4886 148.17 103.411 1.97366C162.297 -137.024 407.005 -165.87 407.005 -165.87" stroke="#F59E0B" stroke-width="4.32558" stroke-miterlimit="10"/>
<path d="M-200.071 202.935C-200.071 202.935 56.2243 166.557 121.915 11.7576C184.343 -135.506 443.901 -165.87 443.901 -165.87" stroke="#F59E0B" stroke-width="4.32558" stroke-miterlimit="10"/>
<path d="M-200.071 223.179C-200.071 223.179 70.9032 184.943 140.362 21.429C206.391 -134.044 480.852 -165.87 480.852 -165.87" stroke="#F59E0B" stroke-width="4.32558" stroke-miterlimit="10"/>
<path d="M-200.071 243.423C-200.071 243.423 85.6389 203.33 158.866 31.1565C228.437 -132.526 517.803 -165.87 517.803 -165.87" stroke="#F59E0B" stroke-width="4.32558" stroke-miterlimit="10"/>
<path d="M-200.071 263.722C-200.071 263.722 100.374 221.772 177.313 40.8844C250.484 -131.008 554.753 -165.87 554.753 -165.87" stroke="#F59E0B" stroke-width="4.32558" stroke-miterlimit="10"/>
<path d="M-200.071 283.962C-200.071 283.962 115.053 240.104 195.817 50.6119C272.531 -129.546 591.65 -165.87 591.65 -165.87" stroke="#F59E0B" stroke-width="4.32558" stroke-miterlimit="10"/>
</g>
<mask id="mask1_4003_323" style="mask-type:alpha" maskUnits="userSpaceOnUse" x="980" y="408" width="279" height="279">
<circle cx="1119.5" cy="547.5" r="137.576" fill="#C4C4C4" stroke="#F8BB54" stroke-width="3.84828"/>
</mask>
<g mask="url(#mask1_4003_323)">
<path d="M898.929 466.504C898.929 466.504 963.889 454.47 980.649 412.355C996.678 371.982 1062.71 361.13 1062.71 361.13" stroke="#EF5944" stroke-width="4.32558" stroke-miterlimit="10"/>
<path d="M898.929 486.746C898.929 486.746 978.624 472.857 999.153 422.026C1018.72 373.501 1099.66 361.13 1099.66 361.13" stroke="#EF5944" stroke-width="4.32558" stroke-miterlimit="10"/>
<path d="M898.929 507.045C898.929 507.045 993.303 491.244 1017.6 431.81C1040.77 374.963 1136.61 361.13 1136.61 361.13" stroke="#EF5944" stroke-width="4.32558" stroke-miterlimit="10"/>
<path d="M898.929 527.287C898.929 527.287 1008.04 509.631 1036.1 441.482C1062.82 376.481 1173.56 361.13 1173.56 361.13" stroke="#EF5944" stroke-width="4.32558" stroke-miterlimit="10"/>
<path d="M898.929 547.53C898.929 547.53 1022.77 528.018 1054.61 451.209C1084.87 377.999 1210.45 361.13 1210.45 361.13" stroke="#EF5944" stroke-width="4.32558" stroke-miterlimit="10"/>
<path d="M898.929 567.828C898.929 567.828 1037.45 546.461 1073.05 460.937C1106.97 379.461 1247.4 361.13 1247.4 361.13" stroke="#EF5944" stroke-width="4.32558" stroke-miterlimit="10"/>
<path d="M898.929 588.07C898.929 588.07 1052.19 564.792 1091.56 470.664C1129.02 380.979 1284.36 361.13 1284.36 361.13" stroke="#EF5944" stroke-width="4.32558" stroke-miterlimit="10"/>
<path d="M898.929 608.313C898.929 608.313 1066.92 583.178 1110.01 480.336C1151.06 382.497 1321.31 361.13 1321.31 361.13" stroke="#EF5944" stroke-width="4.32558" stroke-miterlimit="10"/>
<path d="M898.929 628.612C898.929 628.612 1081.6 601.622 1128.51 490.119C1173.11 383.959 1358.2 361.13 1358.2 361.13" stroke="#EF5944" stroke-width="4.32558" stroke-miterlimit="10"/>
<path d="M898.929 648.853C898.929 648.853 1096.34 620.009 1146.96 499.847C1195.16 385.477 1395.15 361.13 1395.15 361.13" stroke="#EF5944" stroke-width="4.32558" stroke-miterlimit="10"/>
<path d="M898.929 669.152C898.929 669.152 1111.07 638.395 1165.46 509.575C1217.2 386.995 1432.1 361.13 1432.1 361.13" stroke="#EF5944" stroke-width="4.32558" stroke-miterlimit="10"/>
<path d="M898.929 689.396C898.929 689.396 1125.75 656.783 1183.91 519.303C1239.25 388.458 1469.05 361.13 1469.05 361.13" stroke="#EF5944" stroke-width="4.32558" stroke-miterlimit="10"/>
<path d="M898.929 709.636C898.929 709.636 1140.49 675.17 1202.41 528.974C1261.3 389.976 1506 361.13 1506 361.13" stroke="#EF5944" stroke-width="4.32558" stroke-miterlimit="10"/>
<path d="M898.929 729.935C898.929 729.935 1155.22 693.557 1220.91 538.758C1283.34 391.494 1542.9 361.13 1542.9 361.13" stroke="#EF5944" stroke-width="4.32558" stroke-miterlimit="10"/>
<path d="M898.929 750.179C898.929 750.179 1169.9 711.943 1239.36 548.429C1305.39 392.956 1579.85 361.13 1579.85 361.13" stroke="#EF5944" stroke-width="4.32558" stroke-miterlimit="10"/>
<path d="M898.929 770.423C898.929 770.423 1184.64 730.33 1257.87 558.157C1327.44 394.474 1616.8 361.13 1616.8 361.13" stroke="#EF5944" stroke-width="4.32558" stroke-miterlimit="10"/>
<path d="M898.929 790.722C898.929 790.722 1199.37 748.772 1276.31 567.884C1349.48 395.992 1653.75 361.13 1653.75 361.13" stroke="#EF5944" stroke-width="4.32558" stroke-miterlimit="10"/>
<path d="M898.929 810.962C898.929 810.962 1214.05 767.104 1294.82 577.612C1371.53 397.454 1690.65 361.13 1690.65 361.13" stroke="#EF5944" stroke-width="4.32558" stroke-miterlimit="10"/>
</g>
<g clip-path="url(#clip1_4003_323)">
<path d="M170.25 543.91C171.708 543.91 172.89 542.728 172.89 541.27C172.89 539.812 171.708 538.63 170.25 538.63C168.792 538.63 167.61 539.812 167.61 541.27C167.61 542.728 168.792 543.91 170.25 543.91Z" fill="#A855F7"/>
<path d="M146.31 543.91C147.768 543.91 148.95 542.728 148.95 541.27C148.95 539.812 147.768 538.63 146.31 538.63C144.852 538.63 143.67 539.812 143.67 541.27C143.67 542.728 144.852 543.91 146.31 543.91Z" fill="#A855F7"/>
<path d="M122.38 543.91C122.905 543.912 123.418 543.758 123.855 543.468C124.292 543.178 124.633 542.765 124.835 542.281C125.038 541.797 125.091 541.264 124.99 540.749C124.889 540.234 124.638 539.761 124.267 539.39C123.897 539.018 123.425 538.765 122.911 538.662C122.396 538.559 121.863 538.611 121.378 538.811C120.893 539.011 120.479 539.351 120.187 539.787C119.896 540.223 119.74 540.735 119.74 541.26C119.74 541.961 120.018 542.634 120.513 543.13C121.008 543.627 121.679 543.907 122.38 543.91Z" fill="#A855F7"/>
<path d="M98.4501 543.91C98.9742 543.91 99.4866 543.755 99.9224 543.463C100.358 543.172 100.698 542.758 100.898 542.274C101.099 541.79 101.151 541.257 101.049 540.743C100.947 540.229 100.694 539.757 100.324 539.386C99.9532 539.016 99.4811 538.763 98.967 538.661C98.453 538.559 97.9201 538.611 97.4359 538.812C96.9517 539.012 96.5379 539.352 96.2467 539.788C95.9555 540.224 95.8 540.736 95.8 541.26C95.8 541.608 95.8685 541.953 96.0017 542.274C96.1349 542.596 96.3301 542.888 96.5762 543.134C96.8222 543.38 97.1144 543.575 97.4359 543.708C97.7574 543.842 98.1021 543.91 98.4501 543.91Z" fill="#A855F7"/>
<path d="M74.51 543.91C75.968 543.91 77.15 542.728 77.15 541.27C77.15 539.812 75.968 538.63 74.51 538.63C73.052 538.63 71.87 539.812 71.87 541.27C71.87 542.728 73.052 543.91 74.51 543.91Z" fill="#A855F7"/>
<path d="M51.5903 543.596C52.9388 543.041 53.5826 541.498 53.0281 540.15C52.4737 538.801 50.9311 538.158 49.5826 538.712C48.2341 539.267 47.5903 540.809 48.1447 542.158C48.6992 543.506 50.2418 544.15 51.5903 543.596Z" fill="#A855F7"/>
<path d="M26.65 538.66C26.125 538.658 25.6114 538.812 25.174 539.102C24.7367 539.393 24.3955 539.807 24.1937 540.291C23.9919 540.776 23.9386 541.31 24.0405 541.825C24.1424 542.34 24.395 542.813 24.7662 543.184C25.1374 543.555 25.6105 543.808 26.1254 543.91C26.6404 544.011 27.1741 543.958 27.6588 543.756C28.1434 543.555 28.5572 543.213 28.8476 542.776C29.138 542.339 29.292 541.825 29.29 541.3C29.2874 540.601 29.0084 539.931 28.5139 539.436C28.0193 538.942 27.3493 538.663 26.65 538.66Z" fill="#A855F7"/>
<path d="M170.25 522.5C171.708 522.5 172.89 521.318 172.89 519.86C172.89 518.402 171.708 517.22 170.25 517.22C168.792 517.22 167.61 518.402 167.61 519.86C167.61 521.318 168.792 522.5 170.25 522.5Z" fill="#A855F7"/>
<path d="M146.31 522.5C147.768 522.5 148.95 521.318 148.95 519.86C148.95 518.402 147.768 517.22 146.31 517.22C144.852 517.22 143.67 518.402 143.67 519.86C143.67 521.318 144.852 522.5 146.31 522.5Z" fill="#A855F7"/>
<path d="M122.38 522.5C122.905 522.502 123.419 522.348 123.856 522.058C124.293 521.767 124.635 521.353 124.836 520.869C125.038 520.384 125.092 519.85 124.99 519.335C124.888 518.821 124.635 518.347 124.264 517.976C123.893 517.605 123.42 517.352 122.905 517.25C122.39 517.149 121.856 517.202 121.371 517.404C120.887 517.605 120.473 517.947 120.183 518.384C119.892 518.821 119.738 519.335 119.74 519.86C119.743 520.559 120.022 521.229 120.516 521.724C121.011 522.218 121.681 522.497 122.38 522.5Z" fill="#A855F7"/>
<path d="M98.4501 522.5C98.9746 522.5 99.4874 522.344 99.9234 522.053C100.359 521.761 100.699 521.347 100.899 520.862C101.1 520.377 101.151 519.844 101.048 519.329C100.945 518.815 100.692 518.343 100.32 517.973C99.9487 517.602 99.4755 517.351 98.9608 517.25C98.4461 517.149 97.913 517.203 97.429 517.405C96.9449 517.607 96.5318 517.948 96.2418 518.385C95.9519 518.822 95.7981 519.335 95.8001 519.86C95.8001 520.208 95.8687 520.552 96.002 520.873C96.1353 521.194 96.3306 521.485 96.5768 521.73C96.823 521.976 97.1152 522.17 97.4367 522.302C97.7581 522.434 98.1026 522.501 98.4501 522.5Z" fill="#A855F7"/>
<path d="M74.51 522.5C75.968 522.5 77.15 521.318 77.15 519.86C77.15 518.402 75.968 517.22 74.51 517.22C73.052 517.22 71.87 518.402 71.87 519.86C71.87 521.318 73.052 522.5 74.51 522.5Z" fill="#A855F7"/>
<path d="M51.5927 522.193C52.9412 521.639 53.5849 520.096 53.0305 518.748C52.476 517.399 50.9334 516.755 49.5849 517.31C48.2364 517.864 47.5927 519.407 48.1471 520.755C48.7015 522.104 50.2442 522.748 51.5927 522.193Z" fill="#A855F7"/>
<path d="M26.65 522.5C27.1745 522.5 27.6872 522.344 28.1232 522.053C28.5593 521.761 28.8989 521.347 29.0992 520.862C29.2995 520.377 29.3514 519.844 29.2484 519.329C29.1453 518.815 28.8918 518.343 28.5202 517.973C28.1486 517.602 27.6756 517.351 27.1608 517.25C26.6461 517.149 26.113 517.203 25.629 517.405C25.1449 517.607 24.7317 517.948 24.4417 518.385C24.1518 518.822 23.998 519.335 24 519.86C24 520.208 24.0686 520.552 24.2019 520.873C24.3352 521.194 24.5306 521.485 24.7768 521.73C25.023 521.976 25.3152 522.17 25.6367 522.302C25.9581 522.434 26.3025 522.501 26.65 522.5Z" fill="#A855F7"/>
<path d="M170.25 501.09C171.708 501.09 172.89 499.908 172.89 498.45C172.89 496.992 171.708 495.81 170.25 495.81C168.792 495.81 167.61 496.992 167.61 498.45C167.61 499.908 168.792 501.09 170.25 501.09Z" fill="#A855F7"/>
<path d="M146.31 501.09C147.768 501.09 148.95 499.908 148.95 498.45C148.95 496.992 147.768 495.81 146.31 495.81C144.852 495.81 143.67 496.992 143.67 498.45C143.67 499.908 144.852 501.09 146.31 501.09Z" fill="#A855F7"/>
<path d="M122.38 501.1C122.905 501.102 123.418 500.948 123.855 500.658C124.292 500.368 124.633 499.955 124.835 499.471C125.038 498.987 125.091 498.454 124.99 497.939C124.889 497.424 124.638 496.951 124.267 496.58C123.897 496.208 123.425 495.955 122.911 495.852C122.396 495.749 121.863 495.801 121.378 496.001C120.893 496.201 120.479 496.541 120.187 496.977C119.896 497.413 119.74 497.925 119.74 498.45C119.74 499.151 120.018 499.824 120.513 500.32C121.008 500.817 121.679 501.097 122.38 501.1Z" fill="#A855F7"/>
<path d="M98.4501 501.1C98.9742 501.1 99.4866 500.945 99.9224 500.653C100.358 500.362 100.698 499.948 100.898 499.464C101.099 498.98 101.151 498.447 101.049 497.933C100.947 497.419 100.694 496.947 100.324 496.576C99.9532 496.206 99.4811 495.953 98.967 495.851C98.453 495.749 97.9201 495.801 97.4359 496.002C96.9517 496.202 96.5379 496.542 96.2467 496.978C95.9555 497.414 95.8 497.926 95.8 498.45C95.8 498.798 95.8685 499.143 96.0017 499.464C96.1349 499.786 96.3301 500.078 96.5762 500.324C96.8222 500.57 97.1144 500.765 97.4359 500.898C97.7574 501.031 98.1021 501.1 98.4501 501.1Z" fill="#A855F7"/>
<path d="M74.51 501.09C75.968 501.09 77.15 499.908 77.15 498.45C77.15 496.992 75.968 495.81 74.51 495.81C73.052 495.81 71.87 496.992 71.87 498.45C71.87 499.908 73.052 501.09 74.51 501.09Z" fill="#A855F7"/>
<path d="M51.5912 500.791C52.9397 500.237 53.5834 498.694 53.029 497.346C52.4745 495.997 50.9319 495.354 49.5834 495.908C48.2349 496.463 47.5912 498.005 48.1456 499.354C48.7 500.702 50.2427 501.346 51.5912 500.791Z" fill="#A855F7"/>
<path d="M26.65 501.1C27.1741 501.1 27.6865 500.945 28.1223 500.653C28.558 500.362 28.8976 499.948 29.0982 499.464C29.2988 498.98 29.3513 498.447 29.2491 497.933C29.1468 497.419 28.8945 496.947 28.5239 496.576C28.1533 496.206 27.681 495.953 27.1669 495.851C26.6529 495.749 26.1201 495.801 25.6359 496.002C25.1517 496.202 24.7378 496.542 24.4466 496.978C24.1554 497.414 23.9999 497.926 23.9999 498.45C23.9999 499.153 24.2792 499.827 24.7762 500.324C25.2732 500.821 25.9471 501.1 26.65 501.1Z" fill="#A855F7"/>
<path d="M170.25 479.69C171.708 479.69 172.89 478.508 172.89 477.05C172.89 475.592 171.708 474.41 170.25 474.41C168.792 474.41 167.61 475.592 167.61 477.05C167.61 478.508 168.792 479.69 170.25 479.69Z" fill="#A855F7"/>
<path d="M146.31 479.69C147.768 479.69 148.95 478.508 148.95 477.05C148.95 475.592 147.768 474.41 146.31 474.41C144.852 474.41 143.67 475.592 143.67 477.05C143.67 478.508 144.852 479.69 146.31 479.69Z" fill="#A855F7"/>
<path d="M122.38 479.66C122.905 479.662 123.419 479.508 123.856 479.218C124.293 478.927 124.635 478.513 124.836 478.029C125.038 477.544 125.092 477.01 124.99 476.495C124.888 475.98 124.635 475.507 124.264 475.136C123.893 474.765 123.42 474.512 122.905 474.41C122.39 474.309 121.856 474.362 121.371 474.564C120.887 474.765 120.473 475.107 120.183 475.544C119.892 475.981 119.738 476.495 119.74 477.02C119.743 477.719 120.022 478.389 120.516 478.884C121.011 479.378 121.681 479.657 122.38 479.66Z" fill="#A855F7"/>
<path d="M98.4501 479.66C98.9746 479.66 99.4874 479.504 99.9234 479.213C100.359 478.921 100.699 478.507 100.899 478.022C101.1 477.537 101.151 477.004 101.048 476.489C100.945 475.975 100.692 475.503 100.32 475.133C99.9487 474.762 99.4755 474.511 98.9608 474.41C98.4461 474.309 97.913 474.363 97.429 474.565C96.9449 474.767 96.5318 475.108 96.2418 475.545C95.9519 475.982 95.7981 476.495 95.8001 477.02C95.8001 477.368 95.8687 477.712 96.002 478.033C96.1353 478.354 96.3306 478.645 96.5768 478.89C96.823 479.136 97.1152 479.33 97.4367 479.462C97.7581 479.594 98.1026 479.661 98.4501 479.66Z" fill="#A855F7"/>
<path d="M74.51 479.69C75.968 479.69 77.15 478.508 77.15 477.05C77.15 475.592 75.968 474.41 74.51 474.41C73.052 474.41 71.87 475.592 71.87 477.05C71.87 478.508 73.052 479.69 74.51 479.69Z" fill="#A855F7"/>
<path d="M51.5937 479.389C52.9422 478.835 53.5859 477.292 53.0315 475.944C52.477 474.595 50.9344 473.951 49.5859 474.506C48.2374 475.06 47.5936 476.603 48.1481 477.951C48.7025 479.3 50.2452 479.944 51.5937 479.389Z" fill="#A855F7"/>
<path d="M26.65 479.66C27.1745 479.66 27.6872 479.504 28.1232 479.213C28.5593 478.921 28.8989 478.507 29.0992 478.022C29.2995 477.537 29.3514 477.004 29.2484 476.489C29.1453 475.975 28.8918 475.503 28.5202 475.133C28.1486 474.762 27.6756 474.511 27.1608 474.41C26.6461 474.309 26.113 474.363 25.629 474.565C25.1449 474.767 24.7317 475.108 24.4417 475.545C24.1518 475.982 23.998 476.495 24 477.02C24 477.368 24.0686 477.712 24.2019 478.033C24.3352 478.354 24.5306 478.645 24.7768 478.89C25.023 479.136 25.3152 479.33 25.6367 479.462C25.9581 479.594 26.3025 479.661 26.65 479.66Z" fill="#A855F7"/>
<path d="M170.25 458.28C171.708 458.28 172.89 457.098 172.89 455.64C172.89 454.182 171.708 453 170.25 453C168.792 453 167.61 454.182 167.61 455.64C167.61 457.098 168.792 458.28 170.25 458.28Z" fill="#A855F7"/>
<path d="M146.31 458.28C147.768 458.28 148.95 457.098 148.95 455.64C148.95 454.182 147.768 453 146.31 453C144.852 453 143.67 454.182 143.67 455.64C143.67 457.098 144.852 458.28 146.31 458.28Z" fill="#A855F7"/>
<path d="M122.38 458.29C122.905 458.292 123.418 458.138 123.855 457.848C124.292 457.558 124.633 457.145 124.835 456.661C125.038 456.177 125.091 455.644 124.99 455.129C124.889 454.614 124.638 454.141 124.267 453.77C123.897 453.398 123.425 453.145 122.911 453.042C122.396 452.939 121.863 452.991 121.378 453.191C120.893 453.391 120.479 453.731 120.187 454.167C119.896 454.603 119.74 455.115 119.74 455.64C119.74 456.341 120.018 457.014 120.513 457.51C121.008 458.007 121.679 458.287 122.38 458.29Z" fill="#A855F7"/>
<path d="M98.4501 458.29C98.9742 458.29 99.4866 458.135 99.9224 457.843C100.358 457.552 100.698 457.138 100.898 456.654C101.099 456.17 101.151 455.637 101.049 455.123C100.947 454.609 100.694 454.137 100.324 453.766C99.9532 453.396 99.4811 453.143 98.967 453.041C98.453 452.939 97.9201 452.991 97.4359 453.192C96.9517 453.392 96.5379 453.732 96.2467 454.168C95.9555 454.604 95.8 455.116 95.8 455.64C95.8 455.988 95.8685 456.333 96.0017 456.654C96.1349 456.976 96.3301 457.268 96.5762 457.514C96.8222 457.76 97.1144 457.955 97.4359 458.088C97.7574 458.221 98.1021 458.29 98.4501 458.29Z" fill="#A855F7"/>
<path d="M74.51 458.28C75.968 458.28 77.15 457.098 77.15 455.64C77.15 454.182 75.968 453 74.51 453C73.052 453 71.87 454.182 71.87 455.64C71.87 457.098 73.052 458.28 74.51 458.28Z" fill="#A855F7"/>
<path d="M51.5922 457.977C52.9407 457.423 53.5844 455.88 53.03 454.532C52.4755 453.183 50.9329 452.54 49.5844 453.094C48.2359 453.649 47.5921 455.191 48.1466 456.54C48.701 457.888 50.2437 458.532 51.5922 457.977Z" fill="#A855F7"/>
<path d="M26.65 458.29C27.1741 458.29 27.6865 458.135 28.1223 457.843C28.558 457.552 28.8976 457.138 29.0982 456.654C29.2988 456.17 29.3513 455.637 29.2491 455.123C29.1468 454.609 28.8945 454.137 28.5239 453.766C28.1533 453.396 27.681 453.143 27.1669 453.041C26.6529 452.939 26.1201 452.991 25.6359 453.192C25.1517 453.392 24.7378 453.732 24.4466 454.168C24.1554 454.604 23.9999 455.116 23.9999 455.64C23.9999 456.343 24.2792 457.017 24.7762 457.514C25.2732 458.011 25.9471 458.29 26.65 458.29Z" fill="#A855F7"/>
</g>
<g clip-path="url(#clip2_4003_323)">
<path d="M1113.25 114.91C1114.71 114.91 1115.89 113.728 1115.89 112.27C1115.89 110.812 1114.71 109.63 1113.25 109.63C1111.79 109.63 1110.61 110.812 1110.61 112.27C1110.61 113.728 1111.79 114.91 1113.25 114.91Z" fill="#2AD168"/>
<path d="M1089.31 114.91C1090.77 114.91 1091.95 113.728 1091.95 112.27C1091.95 110.812 1090.77 109.63 1089.31 109.63C1087.85 109.63 1086.67 110.812 1086.67 112.27C1086.67 113.728 1087.85 114.91 1089.31 114.91Z" fill="#2AD168"/>
<path d="M1065.38 114.91C1065.9 114.912 1066.42 114.758 1066.85 114.468C1067.29 114.178 1067.63 113.765 1067.84 113.281C1068.04 112.797 1068.09 112.264 1067.99 111.749C1067.89 111.234 1067.64 110.761 1067.27 110.39C1066.9 110.018 1066.43 109.765 1065.91 109.662C1065.4 109.559 1064.86 109.611 1064.38 109.811C1063.89 110.011 1063.48 110.351 1063.19 110.787C1062.9 111.223 1062.74 111.735 1062.74 112.26C1062.74 112.961 1063.02 113.634 1063.51 114.13C1064.01 114.627 1064.68 114.907 1065.38 114.91Z" fill="#2AD168"/>
<path d="M1041.45 114.91C1041.97 114.91 1042.49 114.755 1042.92 114.463C1043.36 114.172 1043.7 113.758 1043.9 113.274C1044.1 112.79 1044.15 112.257 1044.05 111.743C1043.95 111.229 1043.69 110.757 1043.32 110.386C1042.95 110.016 1042.48 109.763 1041.97 109.661C1041.45 109.559 1040.92 109.611 1040.44 109.812C1039.95 110.012 1039.54 110.352 1039.25 110.788C1038.96 111.224 1038.8 111.736 1038.8 112.26C1038.8 112.608 1038.87 112.953 1039 113.274C1039.13 113.596 1039.33 113.888 1039.58 114.134C1039.82 114.38 1040.11 114.575 1040.44 114.708C1040.76 114.842 1041.1 114.91 1041.45 114.91Z" fill="#2AD168"/>
<path d="M1017.51 114.91C1018.97 114.91 1020.15 113.728 1020.15 112.27C1020.15 110.812 1018.97 109.63 1017.51 109.63C1016.05 109.63 1014.87 110.812 1014.87 112.27C1014.87 113.728 1016.05 114.91 1017.51 114.91Z" fill="#2AD168"/>
<path d="M994.59 114.596C995.939 114.041 996.583 112.498 996.028 111.15C995.474 109.801 993.931 109.158 992.583 109.712C991.234 110.267 990.59 111.809 991.145 113.158C991.699 114.506 993.242 115.15 994.59 114.596Z" fill="#2AD168"/>
<path d="M969.65 109.66C969.125 109.658 968.611 109.812 968.174 110.102C967.737 110.393 967.396 110.807 967.194 111.291C966.992 111.776 966.939 112.31 967.041 112.825C967.142 113.34 967.395 113.813 967.766 114.184C968.137 114.555 968.611 114.808 969.126 114.91C969.64 115.011 970.174 114.958 970.659 114.756C971.143 114.555 971.557 114.213 971.848 113.776C972.138 113.339 972.292 112.825 972.29 112.3C972.287 111.601 972.008 110.931 971.514 110.436C971.019 109.942 970.349 109.663 969.65 109.66Z" fill="#2AD168"/>
<path d="M1113.25 93.5C1114.71 93.5 1115.89 92.318 1115.89 90.86C1115.89 89.402 1114.71 88.22 1113.25 88.22C1111.79 88.22 1110.61 89.402 1110.61 90.86C1110.61 92.318 1111.79 93.5 1113.25 93.5Z" fill="#2AD168"/>
<path d="M1089.31 93.5C1090.77 93.5 1091.95 92.318 1091.95 90.86C1091.95 89.402 1090.77 88.22 1089.31 88.22C1087.85 88.22 1086.67 89.402 1086.67 90.86C1086.67 92.318 1087.85 93.5 1089.31 93.5Z" fill="#2AD168"/>
<path d="M1065.38 93.5001C1065.9 93.502 1066.42 93.348 1066.86 93.0576C1067.29 92.7672 1067.63 92.3534 1067.84 91.8688C1068.04 91.3841 1068.09 90.8505 1067.99 90.3355C1067.89 89.8205 1067.64 89.3474 1067.26 88.9762C1066.89 88.605 1066.42 88.3524 1065.9 88.2505C1065.39 88.1485 1064.86 88.2019 1064.37 88.4037C1063.89 88.6055 1063.47 88.9467 1063.18 89.384C1062.89 89.8213 1062.74 90.3351 1062.74 90.86C1062.74 91.5594 1063.02 92.2293 1063.52 92.7239C1064.01 93.2184 1064.68 93.4974 1065.38 93.5001Z" fill="#2AD168"/>
<path d="M1041.45 93.5001C1041.97 93.5 1042.49 93.3444 1042.92 93.0527C1043.36 92.7611 1043.7 92.3466 1043.9 91.8618C1044.1 91.377 1044.15 90.8437 1044.05 90.3293C1043.95 89.815 1043.69 89.3429 1043.32 88.9726C1042.95 88.6024 1042.48 88.3509 1041.96 88.2497C1041.45 88.1486 1040.91 88.2025 1040.43 88.4047C1039.94 88.6068 1039.53 88.948 1039.24 89.3851C1038.95 89.8222 1038.8 90.3355 1038.8 90.86C1038.8 91.2076 1038.87 91.5517 1039 91.8726C1039.14 92.1936 1039.33 92.4851 1039.58 92.7303C1039.82 92.9756 1040.12 93.1698 1040.44 93.3019C1040.76 93.434 1041.1 93.5014 1041.45 93.5001Z" fill="#2AD168"/>
<path d="M1017.51 93.5C1018.97 93.5 1020.15 92.318 1020.15 90.86C1020.15 89.402 1018.97 88.22 1017.51 88.22C1016.05 88.22 1014.87 89.402 1014.87 90.86C1014.87 92.318 1016.05 93.5 1017.51 93.5Z" fill="#2AD168"/>
<path d="M994.593 93.1932C995.941 92.6387 996.585 91.0961 996.03 89.7476C995.476 88.3991 993.933 87.7554 992.585 88.3098C991.236 88.8642 990.593 90.4069 991.147 91.7554C991.702 93.1039 993.244 93.7476 994.593 93.1932Z" fill="#2AD168"/>
<path d="M969.65 93.5001C970.175 93.5 970.687 93.3444 971.123 93.0527C971.559 92.7611 971.899 92.3466 972.099 91.8618C972.3 91.377 972.351 90.8437 972.248 90.3293C972.145 89.815 971.892 89.3429 971.52 88.9726C971.149 88.6024 970.676 88.3509 970.161 88.2497C969.646 88.1486 969.113 88.2025 968.629 88.4047C968.145 88.6068 967.732 88.948 967.442 89.3851C967.152 89.8222 966.998 90.3355 967 90.86C967 91.2076 967.069 91.5517 967.202 91.8726C967.335 92.1936 967.531 92.4851 967.777 92.7303C968.023 92.9756 968.315 93.1698 968.637 93.3019C968.958 93.434 969.303 93.5014 969.65 93.5001Z" fill="#2AD168"/>
<path d="M1113.25 72.09C1114.71 72.09 1115.89 70.908 1115.89 69.45C1115.89 67.992 1114.71 66.81 1113.25 66.81C1111.79 66.81 1110.61 67.992 1110.61 69.45C1110.61 70.908 1111.79 72.09 1113.25 72.09Z" fill="#2AD168"/>
<path d="M1089.31 72.09C1090.77 72.09 1091.95 70.908 1091.95 69.45C1091.95 67.992 1090.77 66.81 1089.31 66.81C1087.85 66.81 1086.67 67.992 1086.67 69.45C1086.67 70.908 1087.85 72.09 1089.31 72.09Z" fill="#2AD168"/>
<path d="M1065.38 72.1C1065.9 72.102 1066.42 71.9483 1066.85 71.6583C1067.29 71.3683 1067.63 70.9551 1067.84 70.4711C1068.04 69.987 1068.09 69.4539 1067.99 68.9392C1067.89 68.4245 1067.64 67.9514 1067.27 67.5798C1066.9 67.2082 1066.43 66.9547 1065.91 66.8517C1065.4 66.7486 1064.86 66.8005 1064.38 67.0008C1063.89 67.2011 1063.48 67.5407 1063.19 67.9767C1062.9 68.4127 1062.74 68.9255 1062.74 69.45C1062.74 70.1511 1063.02 70.8236 1063.51 71.3203C1064.01 71.817 1064.68 72.0974 1065.38 72.1Z" fill="#2AD168"/>
<path d="M1041.45 72.1C1041.97 72.1 1042.49 71.9446 1042.92 71.6534C1043.36 71.3622 1043.7 70.9484 1043.9 70.4642C1044.1 69.9799 1044.15 69.4471 1044.05 68.933C1043.95 68.419 1043.69 67.9468 1043.32 67.5762C1042.95 67.2055 1042.48 66.9532 1041.97 66.8509C1041.45 66.7487 1040.92 66.8012 1040.44 67.0018C1039.95 67.2023 1039.54 67.542 1039.25 67.9778C1038.96 68.4136 1038.8 68.9259 1038.8 69.45C1038.8 69.798 1038.87 70.1426 1039 70.4642C1039.13 70.7857 1039.33 71.0778 1039.58 71.3238C1039.82 71.5699 1040.11 71.7651 1040.44 71.8983C1040.76 72.0315 1041.1 72.1 1041.45 72.1Z" fill="#2AD168"/>
<path d="M1017.51 72.09C1018.97 72.09 1020.15 70.908 1020.15 69.45C1020.15 67.992 1018.97 66.81 1017.51 66.81C1016.05 66.81 1014.87 67.992 1014.87 69.45C1014.87 70.908 1016.05 72.09 1017.51 72.09Z" fill="#2AD168"/>
<path d="M994.591 71.7915C995.94 71.237 996.583 69.6944 996.029 68.3459C995.475 66.9974 993.932 66.3537 992.583 66.9081C991.235 67.4626 990.591 69.0052 991.146 70.3537C991.7 71.7022 993.243 72.3459 994.591 71.7915Z" fill="#2AD168"/>
<path d="M969.65 72.1C970.174 72.1 970.687 71.9446 971.122 71.6534C971.558 71.3622 971.898 70.9484 972.098 70.4642C972.299 69.9799 972.351 69.4471 972.249 68.933C972.147 68.419 971.895 67.9468 971.524 67.5762C971.153 67.2055 970.681 66.9532 970.167 66.8509C969.653 66.7487 969.12 66.8012 968.636 67.0018C968.152 67.2023 967.738 67.542 967.447 67.9778C967.155 68.4136 967 68.9259 967 69.45C967 70.1528 967.279 70.8269 967.776 71.3238C968.273 71.8208 968.947 72.1 969.65 72.1Z" fill="#2AD168"/>
<path d="M1113.25 50.69C1114.71 50.69 1115.89 49.508 1115.89 48.05C1115.89 46.592 1114.71 45.41 1113.25 45.41C1111.79 45.41 1110.61 46.592 1110.61 48.05C1110.61 49.508 1111.79 50.69 1113.25 50.69Z" fill="#2AD168"/>
<path d="M1089.31 50.69C1090.77 50.69 1091.95 49.508 1091.95 48.05C1091.95 46.592 1090.77 45.41 1089.31 45.41C1087.85 45.41 1086.67 46.592 1086.67 48.05C1086.67 49.508 1087.85 50.69 1089.31 50.69Z" fill="#2AD168"/>
<path d="M1065.38 50.66C1065.9 50.662 1066.42 50.508 1066.86 50.2176C1067.29 49.9272 1067.63 49.5134 1067.84 49.0287C1068.04 48.5441 1068.09 48.0105 1067.99 47.4955C1067.89 46.9805 1067.64 46.5074 1067.26 46.1362C1066.89 45.765 1066.42 45.5124 1065.9 45.4105C1065.39 45.3085 1064.86 45.3618 1064.37 45.5636C1063.89 45.7655 1063.47 46.1067 1063.18 46.544C1062.89 46.9813 1062.74 47.495 1062.74 48.02C1062.74 48.7194 1063.02 49.3894 1063.52 49.8839C1064.01 50.3784 1064.68 50.6574 1065.38 50.66Z" fill="#2AD168"/>
<path d="M1041.45 50.66C1041.97 50.66 1042.49 50.5043 1042.92 50.2127C1043.36 49.9211 1043.7 49.5066 1043.9 49.0218C1044.1 48.537 1044.15 48.0037 1044.05 47.4894C1043.95 46.975 1043.69 46.5029 1043.32 46.1327C1042.95 45.7625 1042.48 45.5108 1041.96 45.4097C1041.45 45.3086 1040.91 45.3625 1040.43 45.5646C1039.94 45.7667 1039.53 46.1079 1039.24 46.545C1038.95 46.9821 1038.8 47.4955 1038.8 48.02C1038.8 48.3675 1038.87 48.7117 1039 49.0326C1039.14 49.3536 1039.33 49.645 1039.58 49.8903C1039.82 50.1356 1040.12 50.3299 1040.44 50.462C1040.76 50.594 1041.1 50.6613 1041.45 50.66Z" fill="#2AD168"/>
<path d="M1017.51 50.69C1018.97 50.69 1020.15 49.508 1020.15 48.05C1020.15 46.592 1018.97 45.41 1017.51 45.41C1016.05 45.41 1014.87 46.592 1014.87 48.05C1014.87 49.508 1016.05 50.69 1017.51 50.69Z" fill="#2AD168"/>
<path d="M994.594 50.3891C995.942 49.8347 996.586 48.292 996.031 46.9435C995.477 45.595 993.934 44.9513 992.586 45.5057C991.237 46.0602 990.594 47.6028 991.148 48.9513C991.703 50.2998 993.245 50.9436 994.594 50.3891Z" fill="#2AD168"/>
<path d="M969.65 50.66C970.175 50.66 970.687 50.5043 971.123 50.2127C971.559 49.9211 971.899 49.5066 972.099 49.0218C972.3 48.537 972.351 48.0037 972.248 47.4894C972.145 46.975 971.892 46.5029 971.52 46.1327C971.149 45.7625 970.676 45.5108 970.161 45.4097C969.646 45.3086 969.113 45.3625 968.629 45.5646C968.145 45.7667 967.732 46.1079 967.442 46.545C967.152 46.9821 966.998 47.4955 967 48.02C967 48.3675 967.069 48.7117 967.202 49.0326C967.335 49.3536 967.531 49.645 967.777 49.8903C968.023 50.1356 968.315 50.3299 968.637 50.462C968.958 50.594 969.303 50.6613 969.65 50.66Z" fill="#2AD168"/>
<path d="M1113.25 29.28C1114.71 29.28 1115.89 28.098 1115.89 26.64C1115.89 25.182 1114.71 24 1113.25 24C1111.79 24 1110.61 25.182 1110.61 26.64C1110.61 28.098 1111.79 29.28 1113.25 29.28Z" fill="#2AD168"/>
<path d="M1089.31 29.28C1090.77 29.28 1091.95 28.098 1091.95 26.64C1091.95 25.182 1090.77 24 1089.31 24C1087.85 24 1086.67 25.182 1086.67 26.64C1086.67 28.098 1087.85 29.28 1089.31 29.28Z" fill="#2AD168"/>
<path d="M1065.38 29.29C1065.9 29.292 1066.42 29.1383 1066.85 28.8483C1067.29 28.5583 1067.63 28.1451 1067.84 27.6611C1068.04 27.177 1068.09 26.6439 1067.99 26.1292C1067.89 25.6145 1067.64 25.1414 1067.27 24.7698C1066.9 24.3982 1066.43 24.1447 1065.91 24.0417C1065.4 23.9386 1064.86 23.9905 1064.38 24.1908C1063.89 24.3911 1063.48 24.7307 1063.19 25.1667C1062.9 25.6027 1062.74 26.1155 1062.74 26.64C1062.74 27.3411 1063.02 28.0136 1063.51 28.5103C1064.01 29.007 1064.68 29.2874 1065.38 29.29Z" fill="#2AD168"/>
<path d="M1041.45 29.29C1041.97 29.29 1042.49 29.1346 1042.92 28.8434C1043.36 28.5522 1043.7 28.1384 1043.9 27.6542C1044.1 27.1699 1044.15 26.6371 1044.05 26.123C1043.95 25.609 1043.69 25.1368 1043.32 24.7662C1042.95 24.3955 1042.48 24.1432 1041.97 24.0409C1041.45 23.9387 1040.92 23.9912 1040.44 24.1918C1039.95 24.3923 1039.54 24.732 1039.25 25.1678C1038.96 25.6036 1038.8 26.1159 1038.8 26.64C1038.8 26.988 1038.87 27.3326 1039 27.6542C1039.13 27.9757 1039.33 28.2678 1039.58 28.5138C1039.82 28.7599 1040.11 28.9551 1040.44 29.0883C1040.76 29.2215 1041.1 29.29 1041.45 29.29Z" fill="#2AD168"/>
<path d="M1017.51 29.28C1018.97 29.28 1020.15 28.098 1020.15 26.64C1020.15 25.182 1018.97 24 1017.51 24C1016.05 24 1014.87 25.182 1014.87 26.64C1014.87 28.098 1016.05 29.28 1017.51 29.28Z" fill="#2AD168"/>
<path d="M994.592 28.9774C995.941 28.423 996.584 26.8804 996.03 25.5319C995.476 24.1834 993.933 23.5397 992.584 24.0941C991.236 24.6486 990.592 26.1912 991.147 27.5397C991.701 28.8882 993.244 29.5319 994.592 28.9774Z" fill="#2AD168"/>
<path d="M969.65 29.29C970.174 29.29 970.687 29.1346 971.122 28.8434C971.558 28.5522 971.898 28.1384 972.098 27.6542C972.299 27.1699 972.351 26.6371 972.249 26.123C972.147 25.609 971.895 25.1368 971.524 24.7662C971.153 24.3955 970.681 24.1432 970.167 24.0409C969.653 23.9387 969.12 23.9912 968.636 24.1918C968.152 24.3923 967.738 24.732 967.447 25.1678C967.155 25.6036 967 26.1159 967 26.64C967 27.3428 967.279 28.0169 967.776 28.5138C968.273 29.0108 968.947 29.29 969.65 29.29Z" fill="#2AD168"/>
</g>
<defs>
<radialGradient id="paint0_radial_4003_323" cx="0" cy="0" r="1" gradientUnits="userSpaceOnUse" gradientTransform="translate(570 284) rotate(90) scale(284 570)">
<stop stop-color="#2A3342" stop-opacity="0"/>
<stop offset="1" stop-color="#2A3342"/>
</radialGradient>
<clipPath id="clip0_4003_323">
<rect width="1140" height="568" rx="24" fill="white"/>
</clipPath>
<clipPath id="clip1_4003_323">
<rect width="148.89" height="90.91" fill="white" transform="translate(24 453)"/>
</clipPath>
<clipPath id="clip2_4003_323">
<rect width="148.89" height="90.91" fill="white" transform="translate(967 24)"/>
</clipPath>
</defs>
</svg>
