<svg width="24" height="24" viewBox="0 0 24 24" fill="none" xmlns="http://www.w3.org/2000/svg">
<g id="Icons/Instagram">
<path id="Mask" fill-rule="evenodd" clip-rule="evenodd" d="M7.60057 2.18164H16.3991C19.3872 2.18164 21.8182 4.61264 21.8181 7.60057V16.3991C21.8181 19.387 19.3872 21.818 16.3991 21.818H7.60057C4.61264 21.818 2.18176 19.3871 2.18176 16.3991V7.60057C2.18176 4.61264 4.61264 2.18164 7.60057 2.18164ZM16.3992 20.0758C18.4266 20.0758 20.076 18.4265 20.076 16.3991H20.0759V7.60057C20.0759 5.5733 18.4265 3.92387 16.3991 3.92387H7.60057C5.57331 3.92387 3.924 5.5733 3.924 7.60057V16.3991C3.924 18.4265 5.57331 20.0759 7.60057 20.0758H16.3992ZM6.85709 11.9999C6.85709 9.16406 9.16413 6.85697 11.9999 6.85697C14.8358 6.85697 17.1428 9.16406 17.1428 11.9999C17.1428 14.8357 14.8358 17.1427 11.9999 17.1427C9.16413 17.1427 6.85709 14.8357 6.85709 11.9999ZM8.62792 11.9998C8.62792 13.8591 10.1407 15.3717 11.9999 15.3717C13.8592 15.3717 15.372 13.8591 15.372 11.9998C15.372 10.1404 13.8593 8.62772 11.9999 8.62772C10.1406 8.62772 8.62792 10.1404 8.62792 11.9998Z" fill="#22C55E"/>
<mask id="mask0_2454_16694" style="mask-type:luminance" maskUnits="userSpaceOnUse" x="2" y="2" width="20" height="20">
<path id="Mask_2" fill-rule="evenodd" clip-rule="evenodd" d="M7.60057 2.18164H16.3991C19.3872 2.18164 21.8182 4.61264 21.8181 7.60057V16.3991C21.8181 19.387 19.3872 21.818 16.3991 21.818H7.60057C4.61264 21.818 2.18176 19.3871 2.18176 16.3991V7.60057C2.18176 4.61264 4.61264 2.18164 7.60057 2.18164ZM16.3992 20.0758C18.4266 20.0758 20.076 18.4265 20.076 16.3991H20.0759V7.60057C20.0759 5.5733 18.4265 3.92387 16.3991 3.92387H7.60057C5.57331 3.92387 3.924 5.5733 3.924 7.60057V16.3991C3.924 18.4265 5.57331 20.0759 7.60057 20.0758H16.3992ZM6.85709 11.9999C6.85709 9.16406 9.16413 6.85697 11.9999 6.85697C14.8358 6.85697 17.1428 9.16406 17.1428 11.9999C17.1428 14.8357 14.8358 17.1427 11.9999 17.1427C9.16413 17.1427 6.85709 14.8357 6.85709 11.9999ZM8.62792 11.9998C8.62792 13.8591 10.1407 15.3717 11.9999 15.3717C13.8592 15.3717 15.372 13.8591 15.372 11.9998C15.372 10.1404 13.8593 8.62772 11.9999 8.62772C10.1406 8.62772 8.62792 10.1404 8.62792 11.9998Z" fill="white"/>
</mask>
<g mask="url(#mask0_2454_16694)">
</g>
</g>
</svg>
