<svg width="64" height="64" viewBox="0 0 64 64" fill="none" xmlns="http://www.w3.org/2000/svg">
<rect width="64" height="64" rx="6" fill="#22C55E"/>
<path d="M25 37.9999H29.24C29.3716 38.0007 29.5021 37.9755 29.6239 37.9257C29.7457 37.8759 29.8566 37.8026 29.95 37.7099L36.87 30.7799L39.71 27.9999C39.8037 27.907 39.8781 27.7964 39.9289 27.6745C39.9797 27.5527 40.0058 27.422 40.0058 27.2899C40.0058 27.1579 39.9797 27.0272 39.9289 26.9054C39.8781 26.7835 39.8037 26.6729 39.71 26.5799L35.47 22.2899C35.377 22.1962 35.2664 22.1218 35.1446 22.071C35.0227 22.0203 34.892 21.9941 34.76 21.9941C34.628 21.9941 34.4973 22.0203 34.3754 22.071C34.2536 22.1218 34.143 22.1962 34.05 22.2899L31.23 25.1199L24.29 32.0499C24.1973 32.1434 24.124 32.2542 24.0742 32.376C24.0245 32.4979 23.9992 32.6283 24 32.7599V36.9999C24 37.2652 24.1054 37.5195 24.2929 37.707C24.4804 37.8946 24.7348 37.9999 25 37.9999ZM34.76 24.4099L37.59 27.2399L36.17 28.6599L33.34 25.8299L34.76 24.4099ZM26 33.1699L31.93 27.2399L34.76 30.0699L28.83 35.9999H26V33.1699ZM41 39.9999H23C22.7348 39.9999 22.4804 40.1053 22.2929 40.2928C22.1054 40.4804 22 40.7347 22 40.9999C22 41.2652 22.1054 41.5195 22.2929 41.707C22.4804 41.8946 22.7348 41.9999 23 41.9999H41C41.2652 41.9999 41.5196 41.8946 41.7071 41.707C41.8946 41.5195 42 41.2652 42 40.9999C42 40.7347 41.8946 40.4804 41.7071 40.2928C41.5196 40.1053 41.2652 39.9999 41 39.9999Z" fill="white"/>
</svg>
