<svg width="64" height="64" viewBox="0 0 64 64" fill="none" xmlns="http://www.w3.org/2000/svg">
<rect width="64" height="64" rx="6" fill="#22C55E"/>
<path d="M41.32 29.55L39.43 28.92L40.32 27.14C40.4102 26.9537 40.4404 26.744 40.4064 26.5398C40.3723 26.3356 40.2758 26.147 40.13 26L38 23.87C37.8522 23.7221 37.6618 23.6242 37.4555 23.5901C37.2493 23.556 37.0375 23.5875 36.85 23.68L35.07 24.57L34.44 22.68C34.3735 22.483 34.2472 22.3116 34.0787 22.1898C33.9102 22.0679 33.7079 22.0015 33.5 22H30.5C30.2904 21.9995 30.0858 22.0648 29.9154 22.1868C29.7449 22.3089 29.6171 22.4814 29.55 22.68L28.92 24.57L27.14 23.68C26.9537 23.5898 26.744 23.5596 26.5398 23.5936C26.3356 23.6277 26.147 23.7242 26 23.87L23.87 26C23.7221 26.1478 23.6242 26.3382 23.5901 26.5445C23.556 26.7507 23.5875 26.9625 23.68 27.15L24.57 28.93L22.68 29.56C22.483 29.6265 22.3116 29.7528 22.1898 29.9213C22.0679 30.0898 22.0015 30.2921 22 30.5V33.5C21.9995 33.7096 22.0648 33.9142 22.1868 34.0846C22.3089 34.2551 22.4814 34.3829 22.68 34.45L24.57 35.08L23.68 36.86C23.5898 37.0463 23.5596 37.256 23.5936 37.4602C23.6277 37.6644 23.7242 37.853 23.87 38L26 40.13C26.1478 40.2779 26.3382 40.3758 26.5445 40.4099C26.7507 40.444 26.9625 40.4125 27.15 40.32L28.93 39.43L29.56 41.32C29.6271 41.5186 29.7549 41.6911 29.9254 41.8132C30.0958 41.9352 30.3004 42.0005 30.51 42H33.51C33.7196 42.0005 33.9242 41.9352 34.0946 41.8132C34.2651 41.6911 34.3929 41.5186 34.46 41.32L35.09 39.43L36.87 40.32C37.0551 40.4079 37.2628 40.4369 37.4649 40.4029C37.667 40.3689 37.8538 40.2737 38 40.13L40.13 38C40.2779 37.8522 40.3758 37.6618 40.4099 37.4555C40.444 37.2493 40.4125 37.0375 40.32 36.85L39.43 35.07L41.32 34.44C41.517 34.3735 41.6884 34.2472 41.8103 34.0787C41.9321 33.9102 41.9985 33.7079 42 33.5V30.5C42.0005 30.2904 41.9352 30.0858 41.8132 29.9154C41.6911 29.7449 41.5186 29.6171 41.32 29.55ZM40 32.78L38.8 33.18C38.5241 33.2695 38.2709 33.418 38.0581 33.6151C37.8452 33.8122 37.6778 34.0533 37.5675 34.3216C37.4571 34.5899 37.4064 34.879 37.419 35.1688C37.4315 35.4586 37.5069 35.7422 37.64 36L38.21 37.14L37.11 38.24L36 37.64C35.7436 37.5122 35.4627 37.4411 35.1763 37.4313C34.89 37.4215 34.6049 37.4734 34.3403 37.5834C34.0758 37.6934 33.8379 37.8589 33.6429 38.0688C33.4479 38.2787 33.3003 38.5281 33.21 38.8L32.81 40H31.22L30.82 38.8C30.7305 38.5241 30.582 38.2709 30.3849 38.0581C30.1878 37.8452 29.9467 37.6778 29.6784 37.5675C29.4101 37.4571 29.1211 37.4064 28.8312 37.419C28.5414 37.4315 28.2578 37.5069 28 37.64L26.86 38.21L25.76 37.11L26.36 36C26.4931 35.7422 26.5685 35.4586 26.581 35.1688C26.5936 34.879 26.5429 34.5899 26.4325 34.3216C26.3222 34.0533 26.1548 33.8122 25.9419 33.6151C25.7291 33.418 25.4759 33.2695 25.2 33.18L24 32.78V31.22L25.2 30.82C25.4759 30.7305 25.7291 30.582 25.9419 30.3849C26.1548 30.1878 26.3222 29.9467 26.4325 29.6784C26.5429 29.4101 26.5936 29.1211 26.581 28.8312C26.5685 28.5414 26.4931 28.2578 26.36 28L25.79 26.89L26.89 25.79L28 26.36C28.2578 26.4931 28.5414 26.5685 28.8312 26.581C29.1211 26.5936 29.4101 26.5429 29.6784 26.4325C29.9467 26.3222 30.1878 26.1548 30.3849 25.9419C30.582 25.7291 30.7305 25.4759 30.82 25.2L31.22 24H32.78L33.18 25.2C33.2695 25.4759 33.418 25.7291 33.6151 25.9419C33.8122 26.1548 34.0533 26.3222 34.3216 26.4325C34.5899 26.5429 34.879 26.5936 35.1688 26.581C35.4586 26.5685 35.7422 26.4931 36 26.36L37.14 25.79L38.24 26.89L37.64 28C37.5122 28.2564 37.4411 28.5373 37.4313 28.8237C37.4215 29.11 37.4734 29.3951 37.5834 29.6597C37.6934 29.9242 37.8589 30.1621 38.0688 30.3571C38.2787 30.5521 38.5281 30.6997 38.8 30.79L40 31.19V32.78ZM32 28C31.2089 28 30.4355 28.2346 29.7777 28.6741C29.1199 29.1137 28.6072 29.7384 28.3045 30.4693C28.0017 31.2002 27.9225 32.0044 28.0769 32.7804C28.2312 33.5563 28.6122 34.269 29.1716 34.8284C29.731 35.3878 30.4437 35.7688 31.2196 35.9231C31.9956 36.0775 32.7998 35.9983 33.5307 35.6955C34.2616 35.3928 34.8864 34.8801 35.3259 34.2223C35.7654 33.5645 36 32.7911 36 32C36 30.9391 35.5786 29.9217 34.8284 29.1716C34.0783 28.4214 33.0609 28 32 28ZM32 34C31.6044 34 31.2178 33.8827 30.8889 33.6629C30.56 33.4432 30.3036 33.1308 30.1522 32.7654C30.0009 32.3999 29.9613 31.9978 30.0384 31.6098C30.1156 31.2219 30.3061 30.8655 30.5858 30.5858C30.8655 30.3061 31.2219 30.1156 31.6098 30.0384C31.9978 29.9613 32.3999 30.0009 32.7654 30.1522C33.1308 30.3036 33.4432 30.56 33.6629 30.8889C33.8827 31.2178 34 31.6044 34 32C34 32.5304 33.7893 33.0391 33.4142 33.4142C33.0391 33.7893 32.5304 34 32 34Z" fill="white"/>
</svg>
