<svg width="24" height="24" viewBox="0 0 24 24" fill="none" xmlns="http://www.w3.org/2000/svg">
<g id="Icons/Twitter">
<path id="Shape" fill-rule="evenodd" clip-rule="evenodd" d="M21.8181 6.1461C21.1356 6.44856 20.4032 6.65368 19.6336 6.74525C20.4194 6.27474 21.0208 5.52844 21.3059 4.64189C20.5689 5.07762 19.7553 5.39401 18.8885 5.56553C18.1943 4.82501 17.2069 4.36377 16.1118 4.36377C14.0108 4.36377 12.3072 6.06731 12.3072 8.16719C12.3072 8.46501 12.3408 8.75589 12.4057 9.03404C9.24434 8.87525 6.44104 7.36062 4.56483 5.05907C4.23686 5.61998 4.05028 6.27356 4.05028 6.97122C4.05028 8.29119 4.72243 9.45586 5.74225 10.1373C5.11877 10.1164 4.53237 9.94489 4.01901 9.6598V9.70732C4.01901 11.5499 5.33086 13.0877 7.07031 13.4377C6.75161 13.5235 6.41555 13.571 6.06789 13.571C5.82222 13.571 5.58464 13.5467 5.35171 13.5003C5.8361 15.0126 7.24067 16.1124 8.90483 16.1426C7.6034 17.1624 5.96243 17.7685 4.1801 17.7685C3.87301 17.7685 3.57052 17.7499 3.27271 17.7163C4.95655 18.7976 6.95561 19.428 9.10416 19.428C16.1026 19.428 19.928 13.6313 19.928 8.6041L19.9153 8.11159C20.6627 7.57847 21.3094 6.90865 21.8181 6.1461Z" fill="#22C55E"/>
<mask id="mask0_2454_16693" style="mask-type:luminance" maskUnits="userSpaceOnUse" x="3" y="4" width="19" height="16">
<path id="Shape_2" fill-rule="evenodd" clip-rule="evenodd" d="M21.8181 6.1461C21.1356 6.44856 20.4032 6.65368 19.6336 6.74525C20.4194 6.27474 21.0208 5.52844 21.3059 4.64189C20.5689 5.07762 19.7553 5.39401 18.8885 5.56553C18.1943 4.82501 17.2069 4.36377 16.1118 4.36377C14.0108 4.36377 12.3072 6.06731 12.3072 8.16719C12.3072 8.46501 12.3408 8.75589 12.4057 9.03404C9.24434 8.87525 6.44104 7.36062 4.56483 5.05907C4.23686 5.61998 4.05028 6.27356 4.05028 6.97122C4.05028 8.29119 4.72243 9.45586 5.74225 10.1373C5.11877 10.1164 4.53237 9.94489 4.01901 9.6598V9.70732C4.01901 11.5499 5.33086 13.0877 7.07031 13.4377C6.75161 13.5235 6.41555 13.571 6.06789 13.571C5.82222 13.571 5.58464 13.5467 5.35171 13.5003C5.8361 15.0126 7.24067 16.1124 8.90483 16.1426C7.6034 17.1624 5.96243 17.7685 4.1801 17.7685C3.87301 17.7685 3.57052 17.7499 3.27271 17.7163C4.95655 18.7976 6.95561 19.428 9.10416 19.428C16.1026 19.428 19.928 13.6313 19.928 8.6041L19.9153 8.11159C20.6627 7.57847 21.3094 6.90865 21.8181 6.1461Z" fill="white"/>
</mask>
<g mask="url(#mask0_2454_16693)">
</g>
</g>
</svg>
